<svg xmlns="http://www.w3.org/2000/svg" viewBox="0 0 54.93 55"><defs><style>.cls-1{fill:#fa6085;}</style></defs><title>Agricultural</title><g id="Layer_2" data-name="Layer 2"><g id="front"><path class="cls-1" d="M.62,55H54.24a.69.69,0,0,0,0-1.37h-6.6V47.57a7.21,7.21,0,0,0,4.95-1.72c2.06-2,1.86-5.43,1.86-5.57a.62.62,0,0,0-.62-.62,8.8,8.8,0,0,0-3.85.55,5.13,5.13,0,0,0,.28-1.79c0-3-2.75-5.36-2.89-5.43a.72.72,0,0,0-.89,0c-.14.07-2.82,2.47-2.82,5.5a6.37,6.37,0,0,0,.28,1.65,9,9,0,0,0-3.57-.55.62.62,0,0,0-.62.62c0,.14-.34,3.57,1.72,5.64a7.54,7.54,0,0,0,4.88,1.86v5.91H28V47.57a7,7,0,0,0,4.88-1.72c2.06-2,1.86-5.43,1.86-5.57a.62.62,0,0,0-.62-.62,8.8,8.8,0,0,0-3.85.55,5.13,5.13,0,0,0,.28-1.79c0-3-2.75-5.36-2.89-5.43a.72.72,0,0,0-.89,0c-.14.07-2.82,2.47-2.82,5.5a6.37,6.37,0,0,0,.28,1.65,9,9,0,0,0-3.58-.55.62.62,0,0,0-.62.62c0,.14-.34,3.57,1.72,5.64a7.54,7.54,0,0,0,4.88,1.86v5.91H8.25V47.57a7,7,0,0,0,4.88-1.72c2.06-2,1.86-5.43,1.86-5.57a.62.62,0,0,0-.62-.62,8.8,8.8,0,0,0-3.85.55,5.13,5.13,0,0,0,.27-1.79c0-3-2.75-5.36-2.89-5.43A.72.72,0,0,0,7,33c-.14.07-2.82,2.47-2.82,5.5a6.37,6.37,0,0,0,.27,1.65A9,9,0,0,0,.89,39.6a.62.62,0,0,0-.62.62c0,.14-.34,3.57,1.72,5.64a7.54,7.54,0,0,0,4.88,1.86v5.91H.69a.65.65,0,0,0-.69.69A.63.63,0,0,0,.62,55Zm51-10.11a5.94,5.94,0,0,1-3.92,1.31,6.17,6.17,0,0,1,1.44-3.92A5.94,5.94,0,0,1,53.08,41,6,6,0,0,1,51.63,44.89ZM47,34.44a6.09,6.09,0,0,1,1.93,4,6.4,6.4,0,0,1-1.86,4,6.09,6.09,0,0,1-1.93-4A6.23,6.23,0,0,1,47,34.44ZM42.42,44.89A5.94,5.94,0,0,1,41.11,41,6.17,6.17,0,0,1,45,42.42a6,6,0,0,1,1.31,3.71v.21A6,6,0,0,1,42.42,44.89Zm-10.52,0A5.94,5.94,0,0,1,28,46.2a6.17,6.17,0,0,1,1.44-3.92A5.94,5.94,0,0,1,33.34,41,5.69,5.69,0,0,1,31.9,44.89ZM27.22,34.44a6.09,6.09,0,0,1,1.92,4,6.4,6.4,0,0,1-1.86,4,6.09,6.09,0,0,1-1.92-4A6.23,6.23,0,0,1,27.22,34.44ZM22.69,44.89A5.94,5.94,0,0,1,21.38,41a6.17,6.17,0,0,1,3.92,1.44,5.7,5.7,0,0,1,1.31,3.71v.21A6,6,0,0,1,22.69,44.89Zm-10.52,0A5.94,5.94,0,0,1,8.25,46.2a6.17,6.17,0,0,1,1.44-3.92A5.94,5.94,0,0,1,13.61,41,5.69,5.69,0,0,1,12.17,44.89ZM7.49,34.44a6.09,6.09,0,0,1,1.92,4,6.4,6.4,0,0,1-1.86,4,6.09,6.09,0,0,1-1.92-4A6.23,6.23,0,0,1,7.49,34.44ZM3,44.89A5.94,5.94,0,0,1,1.65,41a6.17,6.17,0,0,1,3.92,1.44,5.7,5.7,0,0,1,1.31,3.71v.21A6.45,6.45,0,0,1,3,44.89Z"/><path class="cls-1" d="M26.88,20.42a6.33,6.33,0,1,0-6.33-6.33A6.31,6.31,0,0,0,26.88,20.42Zm0-11.28a5,5,0,1,1-5,5A4.93,4.93,0,0,1,26.88,9.14Z"/><path class="cls-1" d="M26.88,4.81a.65.65,0,0,0,.69-.69V.69a.69.69,0,0,0-1.37,0V4.13A.65.65,0,0,0,26.88,4.81Z"/><path class="cls-1" d="M31.42,6a.62.62,0,0,0,.34.07.82.82,0,0,0,.62-.34l1.72-3a.71.71,0,0,0-1.24-.69l-1.72,3A.85.85,0,0,0,31.42,6Z"/><path class="cls-1" d="M35.41,9.69a.62.62,0,0,0,.34-.07l3-1.79a.76.76,0,0,0,.28-1,.76.76,0,0,0-1-.27l-3,1.79a.76.76,0,0,0-.28,1A.73.73,0,0,0,35.41,9.69Z"/><path class="cls-1" d="M36.09,14a.74.74,0,0,0,.69.69h0l3.44-.07a.69.69,0,0,0,.69-.69.74.74,0,0,0-.69-.69h0l-3.44.07A.69.69,0,0,0,36.09,14Z"/><path class="cls-1" d="M35.89,18.29a.71.71,0,0,0-.69,1.24l3,1.65a.62.62,0,0,0,.34.07.72.72,0,0,0,.62-.34.7.7,0,0,0-.28-1Z"/><path class="cls-1" d="M31.69,22a.68.68,0,0,0-.21,1l1.79,3a.72.72,0,0,0,.62.34.52.52,0,0,0,.34-.07.68.68,0,0,0,.21-1l-1.79-3A.65.65,0,0,0,31.69,22Z"/><path class="cls-1" d="M27.16,23.38a.69.69,0,0,0-.69.69l.14,3.44a.74.74,0,0,0,.69.69h0A.69.69,0,0,0,28,27.5l-.14-3.44C27.84,23.65,27.57,23.31,27.16,23.38Z"/><path class="cls-1" d="M21.59,22.55l-1.58,3a.7.7,0,0,0,.28,1,.52.52,0,0,0,.34.07.72.72,0,0,0,.62-.34l1.58-3a.7.7,0,0,0-.28-1A.85.85,0,0,0,21.59,22.55Z"/><path class="cls-1" d="M18.08,18.91l-2.89,1.86a.68.68,0,0,0-.21,1,.7.7,0,0,0,.55.34.53.53,0,0,0,.34-.14l2.89-1.86a.68.68,0,0,0,.21-1A.59.59,0,0,0,18.08,18.91Z"/><path class="cls-1" d="M13.47,15.47h0L17,15.26A.65.65,0,1,0,16.91,14l-3.44.21a.59.59,0,0,0-.62.69C12.79,15.19,13.13,15.47,13.47,15.47Z"/><path class="cls-1" d="M14.57,8.66l3.09,1.58a.52.52,0,0,0,.34.07.72.72,0,0,0,.62-.34.66.66,0,0,0-.28-.89L15.26,7.49a.66.66,0,0,0-.89.27A.57.57,0,0,0,14.57,8.66Z"/><path class="cls-1" d="M20.76,6.19a.63.63,0,0,0,.55.27,1,1,0,0,0,.41-.14.68.68,0,0,0,.21-1L20,2.47a.7.7,0,1,0-1.17.76Z"/></g></g></svg>