<svg xmlns="http://www.w3.org/2000/svg" viewBox="0 0 40.08 50"><defs><style>.cls-1{fill:#fa6085;}</style></defs><title>Biological</title><g id="Layer_2" data-name="Layer 2"><g id="front"><path class="cls-1" d="M2.57,50H37a2.57,2.57,0,0,0,2.57-2.57V45.09A2.57,2.57,0,0,0,37,42.52h-.85l-4.2-5.58A17.27,17.27,0,0,0,22.8,5c-1.19,0-2.92.17-3.86.27V5.07a2.28,2.28,0,0,0-2.28-2.28h-.28v-2A.83.83,0,0,0,15.55,0H11.06a.83.83,0,0,0-.83.83v2H9.95A2.28,2.28,0,0,0,7.67,5.07V23.24a2.28,2.28,0,0,0,1.82,2.23V28.1a.83.83,0,0,0,.83.83h6a.83.83,0,0,0,.83-.83V25.48a2.28,2.28,0,0,0,1.82-2.23V11.85a22.78,22.78,0,0,1,3.86-.53,11,11,0,0,1,5.28,20.56,4.35,4.35,0,0,0-3.21-1.39l-.46,0-.28,0H4.57a2.67,2.67,0,1,0,0,5.34H18.66l-5,6.7H2.57A2.57,2.57,0,0,0,0,45.09v2.34A2.57,2.57,0,0,0,2.57,50ZM11.89,1.67h2.83V2.79H11.89Zm3.56,25.6h-4.3V25.52h4.3Zm1.82-4a.61.61,0,0,1-.61.61H9.95a.61.61,0,0,1-.61-.61V5.07a.61.61,0,0,1,.61-.61h6.71a.61.61,0,0,1,.61.61Zm18.16-1A12.64,12.64,0,0,0,22.8,9.65a22.71,22.71,0,0,0-3.86.49V7c.85-.09,2.69-.28,3.86-.28A15.6,15.6,0,0,1,30.92,35.6l-1.8-2.4A12.7,12.7,0,0,0,35.43,22.28ZM4.57,34.16a1,1,0,0,1-.72-1.71,1,1,0,0,1,.72-.3H21.43l-.07.09-1.45,1.92H4.57Zm18.12-.92a2.73,2.73,0,0,1,4.36,0l7,9.29H15.71Zm-21,11.86a.9.9,0,0,1,.9-.9H37a.9.9,0,0,1,.9.9v2.34a.9.9,0,0,1-.9.9H2.57a.9.9,0,0,1-.9-.9Z"/><circle class="cls-1" cx="24.87" cy="34.99" r="1.63"/></g></g></svg>