<svg xmlns="http://www.w3.org/2000/svg" viewBox="0 0 55.61 50"><defs><style>.cls-1{fill:#fa6085;}</style></defs><title>Business</title><g id="Layer_2" data-name="Layer 2"><g id="front"><path class="cls-1" d="M55.6,24.44a.92.92,0,0,0-.06-.31l0-.07a.91.91,0,0,0-.06-.12l-8.11-11.7V4.63a.93.93,0,0,0-.93-.93h-14a4.63,4.63,0,0,0-9.07,0H9.2a.93.93,0,0,0-.93.93v7.61L.17,23.94a.91.91,0,0,0-.06.12l0,.07a.92.92,0,0,0-.06.31v0a9.2,9.2,0,0,0,18.4,0v0a.92.92,0,0,0-.06-.31l0-.07a.9.9,0,0,0-.06-.12l-8.11-11.7V5.56H23.37A4.64,4.64,0,0,0,27,9.17V41.78H16a.93.93,0,0,0-.93.93v6.37A.93.93,0,0,0,16,50H39.84a.93.93,0,0,0,.93-.93V42.71a.93.93,0,0,0-.93-.93h-11V9.17a4.64,4.64,0,0,0,3.61-3.61h13v6.68l-8.11,11.7a.9.9,0,0,0-.06.12l0,.07a.92.92,0,0,0-.06.31v0a9.2,9.2,0,1,0,18.4,0ZM9.2,31.81a7.35,7.35,0,0,1-7.28-6.42H16.48A7.35,7.35,0,0,1,9.2,31.81Zm-6.5-8.27,6.5-9.39,6.5,9.39ZM38.92,48.15h-22V43.63h22ZM28.83,7.24a2.6,2.6,0,0,1-1.85,0A2.77,2.77,0,0,1,25.3,5.56a2.75,2.75,0,0,1-.17-.93,2.74,2.74,0,0,1,.17-.93,2.77,2.77,0,1,1,3.53,3.53Zm17.58,6.91,6.5,9.39h-13Zm0,17.66a7.35,7.35,0,0,1-7.28-6.42H53.69A7.35,7.35,0,0,1,46.41,31.81Z"/></g></g></svg>