<svg xmlns="http://www.w3.org/2000/svg" viewBox="0 0 190.96 103"><defs><style>.cls-1{fill:#262626;}.cls-2{fill:#3ea0dd;}.cls-3{fill:#bfbfbf;}</style></defs><title>Data-logo</title><g id="Layer_2" data-name="Layer 2"><g id="front"><g id="header_menu" data-name="header menu"><path class="cls-1" d="M86.76,80h-.65V76.34H81.77V80h-.64v-7.6h.64V75.8h4.34V72.39h.65Z"/><path class="cls-1" d="M90.73,80.09a2.45,2.45,0,0,1-1.3-.36,2.42,2.42,0,0,1-.91-1,3.08,3.08,0,0,1-.32-1.42V77.1a3.32,3.32,0,0,1,.32-1.47,2.51,2.51,0,0,1,.88-1,2.17,2.17,0,0,1,1.22-.37,2,2,0,0,1,1.63.7,2.85,2.85,0,0,1,.6,1.92v.35h-4v.12a2.37,2.37,0,0,0,.55,1.6,1.75,1.75,0,0,0,1.39.64,2,2,0,0,0,.88-.18,2,2,0,0,0,.7-.58l.39.3A2.28,2.28,0,0,1,90.73,80.09Zm-.11-5.33a1.56,1.56,0,0,0-1.19.52,2.39,2.39,0,0,0-.59,1.39h3.39V76.6a2.07,2.07,0,0,0-.46-1.33A1.44,1.44,0,0,0,90.62,74.77Z"/><path class="cls-1" d="M94.77,80h-.63V72h.63Z"/><path class="cls-1" d="M97.16,80h-.63V72h.63Z"/><path class="cls-1" d="M101,80.09a2.45,2.45,0,0,1-1.3-.36,2.42,2.42,0,0,1-.91-1,3.08,3.08,0,0,1-.32-1.42V77.1a3.32,3.32,0,0,1,.32-1.47,2.51,2.51,0,0,1,.88-1,2.17,2.17,0,0,1,1.22-.37,2,2,0,0,1,1.63.7,2.85,2.85,0,0,1,.6,1.92v.35h-4v.12a2.37,2.37,0,0,0,.55,1.6,1.75,1.75,0,0,0,1.39.64,2,2,0,0,0,.88-.18,2,2,0,0,0,.7-.58l.39.3A2.28,2.28,0,0,1,101,80.09Zm-.11-5.33a1.56,1.56,0,0,0-1.19.52,2.39,2.39,0,0,0-.59,1.39h3.39V76.6a2.07,2.07,0,0,0-.46-1.33A1.44,1.44,0,0,0,100.93,74.77Z"/><path class="cls-1" d="M105,74.34l0,1a2.24,2.24,0,0,1,.79-.8,2.06,2.06,0,0,1,1-.27,1.69,1.69,0,0,1,1.35.51,2.31,2.31,0,0,1,.45,1.53V80H108V76.27a1.73,1.73,0,0,0-.32-1.13,1.26,1.26,0,0,0-1-.37,1.58,1.58,0,0,0-1,.36,2.13,2.13,0,0,0-.66,1V80h-.62V74.34Z"/><path class="cls-1" d="M110.22,72.71a.42.42,0,0,1,.11-.3.41.41,0,0,1,.31-.12.42.42,0,0,1,.32.12.41.41,0,0,1,.12.3.4.4,0,0,1-.12.3.42.42,0,0,1-.32.12.41.41,0,0,1-.31-.12A.41.41,0,0,1,110.22,72.71ZM111,80h-.63V74.34H111Z"/><path class="cls-1" d="M114.74,79.56a1.65,1.65,0,0,0,1.09-.37,1.29,1.29,0,0,0,.48-1h.6a1.77,1.77,0,0,1-.32.94,2,2,0,0,1-.79.67,2.38,2.38,0,0,1-1.06.24,2.18,2.18,0,0,1-1.76-.77,3.12,3.12,0,0,1-.65-2.08v-.19a3.53,3.53,0,0,1,.29-1.48,2.25,2.25,0,0,1,.84-1,2.31,2.31,0,0,1,1.28-.35,2.18,2.18,0,0,1,1.53.55,2,2,0,0,1,.64,1.46h-.6a1.51,1.51,0,0,0-1.58-1.48,1.56,1.56,0,0,0-1.31.61,2.76,2.76,0,0,0-.47,1.71v.18a2.7,2.7,0,0,0,.47,1.69A1.57,1.57,0,0,0,114.74,79.56Z"/><path class="cls-1" d="M81.12,90.87v-7.6h2.12a3.31,3.31,0,0,1,1.68.43,2.94,2.94,0,0,1,1.16,1.22,3.84,3.84,0,0,1,.42,1.81v.7a3.84,3.84,0,0,1-.41,1.81,2.93,2.93,0,0,1-1.16,1.22,3.4,3.4,0,0,1-1.72.43Zm.64-7.06v6.52h1.44a2.48,2.48,0,0,0,1.93-.8,3.08,3.08,0,0,0,.73-2.16v-.67a3,3,0,0,0-.72-2.1,2.44,2.44,0,0,0-1.88-.79Z"/><path class="cls-1" d="M91.55,90.87a3,3,0,0,1-.12-.79,2.18,2.18,0,0,1-.84.66,2.57,2.57,0,0,1-1.08.23,1.89,1.89,0,0,1-1.32-.45,1.48,1.48,0,0,1-.5-1.15,1.51,1.51,0,0,1,.69-1.31,3.3,3.3,0,0,1,1.91-.48h1.13v-.64A1.24,1.24,0,0,0,91,86,1.54,1.54,0,0,0,90,85.64a1.7,1.7,0,0,0-1.08.33,1,1,0,0,0-.43.8h-.63a1.45,1.45,0,0,1,.63-1.17A2.41,2.41,0,0,1,90,85.12a2.2,2.2,0,0,1,1.49.47A1.7,1.7,0,0,1,92,86.91v2.67a3.31,3.31,0,0,0,.17,1.23v.06Zm-2-.45a2.1,2.1,0,0,0,1.12-.3,1.78,1.78,0,0,0,.72-.81V88.07H90.3a2.8,2.8,0,0,0-1.46.34,1,1,0,0,0-.53.91,1,1,0,0,0,.35.79A1.33,1.33,0,0,0,89.58,90.42Z"/><path class="cls-1" d="M94.68,83.77v1.45h1.17v.51H94.68V89.5a1.18,1.18,0,0,0,.17.7.66.66,0,0,0,.57.23,3.87,3.87,0,0,0,.51-.05l0,.51a2,2,0,0,1-.67.09,1.11,1.11,0,0,1-.93-.37,1.76,1.76,0,0,1-.29-1.1V85.73H93v-.51h1V83.77Z"/><path class="cls-1" d="M100.71,90.87a3,3,0,0,1-.12-.79,2.18,2.18,0,0,1-.84.66,2.57,2.57,0,0,1-1.08.23,1.89,1.89,0,0,1-1.32-.45,1.48,1.48,0,0,1-.5-1.15,1.51,1.51,0,0,1,.69-1.31,3.3,3.3,0,0,1,1.91-.48h1.13v-.64a1.24,1.24,0,0,0-.37-1,1.54,1.54,0,0,0-1.09-.35A1.7,1.7,0,0,0,98,86a1,1,0,0,0-.43.8H97a1.45,1.45,0,0,1,.63-1.17,2.41,2.41,0,0,1,1.54-.49,2.2,2.2,0,0,1,1.49.47,1.7,1.7,0,0,1,.56,1.32v2.67a3.31,3.31,0,0,0,.17,1.23v.06Zm-2-.45a2.1,2.1,0,0,0,1.12-.3,1.78,1.78,0,0,0,.72-.81V88.07H99.47a2.8,2.8,0,0,0-1.46.34,1,1,0,0,0-.53.91,1,1,0,0,0,.35.79A1.33,1.33,0,0,0,98.74,90.42Z"/><path class="cls-1" d="M85.43,99.88a1.23,1.23,0,0,0-.44-1,4.69,4.69,0,0,0-1.62-.7,5.69,5.69,0,0,1-1.72-.72,1.75,1.75,0,0,1-.05-2.87A3,3,0,0,1,83.42,94a3,3,0,0,1,1.35.29,2.22,2.22,0,0,1,.93.81A2.14,2.14,0,0,1,86,96.32h-.65a1.6,1.6,0,0,0-.53-1.25,2.07,2.07,0,0,0-1.43-.47A2.25,2.25,0,0,0,82,95a1.22,1.22,0,0,0-.52,1,1.15,1.15,0,0,0,.46.95,4.31,4.31,0,0,0,1.49.65,7,7,0,0,1,1.55.58,2.21,2.21,0,0,1,.79.72,1.8,1.8,0,0,1,.27,1,1.72,1.72,0,0,1-.72,1.44,3.06,3.06,0,0,1-1.89.54,3.71,3.71,0,0,1-1.47-.29,2.25,2.25,0,0,1-1-.8,2.07,2.07,0,0,1-.35-1.19h.64a1.52,1.52,0,0,0,.6,1.27,2.54,2.54,0,0,0,1.6.46,2.37,2.37,0,0,0,1.43-.39A1.22,1.22,0,0,0,85.43,99.88Z"/><path class="cls-1" d="M89.5,101.86a2.45,2.45,0,0,1-1.3-.36,2.42,2.42,0,0,1-.91-1A3.08,3.08,0,0,1,87,99.09v-.22a3.32,3.32,0,0,1,.32-1.47,2.51,2.51,0,0,1,.88-1A2.17,2.17,0,0,1,89.38,96a2,2,0,0,1,1.63.7,2.85,2.85,0,0,1,.6,1.92V99h-4v.12a2.37,2.37,0,0,0,.55,1.6,1.75,1.75,0,0,0,1.39.64,2,2,0,0,0,.88-.18,2,2,0,0,0,.7-.58l.39.3A2.28,2.28,0,0,1,89.5,101.86Zm-.11-5.33A1.56,1.56,0,0,0,88.2,97a2.39,2.39,0,0,0-.59,1.39H91v-.07A2.07,2.07,0,0,0,90.53,97,1.44,1.44,0,0,0,89.38,96.53Z"/><path class="cls-1" d="M95.45,96.64a2.34,2.34,0,0,0-.42,0,1.52,1.52,0,0,0-1,.33,1.79,1.79,0,0,0-.58.95v3.88h-.62V96.1h.61V97A1.66,1.66,0,0,1,95,96a1,1,0,0,1,.41.07Z"/><path class="cls-1" d="M98.29,100.89,100,96.1h.64l-2.11,5.65H98L95.91,96.1h.64Z"/><path class="cls-1" d="M101.63,94.47a.42.42,0,0,1,.11-.3.41.41,0,0,1,.31-.12.42.42,0,0,1,.32.12.41.41,0,0,1,.12.3.4.4,0,0,1-.12.3.42.42,0,0,1-.32.12.41.41,0,0,1-.31-.12A.41.41,0,0,1,101.63,94.47Zm.74,7.28h-.63V96.1h.63Z"/><path class="cls-1" d="M106.15,101.33a1.65,1.65,0,0,0,1.09-.37,1.29,1.29,0,0,0,.48-1h.6a1.77,1.77,0,0,1-.32.94,2,2,0,0,1-.79.67,2.38,2.38,0,0,1-1.06.24,2.18,2.18,0,0,1-1.76-.77,3.12,3.12,0,0,1-.65-2.08v-.19a3.53,3.53,0,0,1,.29-1.48,2.25,2.25,0,0,1,.84-1,2.31,2.31,0,0,1,1.28-.35,2.18,2.18,0,0,1,1.53.55,2,2,0,0,1,.64,1.46h-.6a1.51,1.51,0,0,0-1.58-1.48,1.56,1.56,0,0,0-1.31.61,2.76,2.76,0,0,0-.47,1.71V99a2.7,2.7,0,0,0,.47,1.69A1.57,1.57,0,0,0,106.15,101.33Z"/><path class="cls-1" d="M111.76,101.86a2.45,2.45,0,0,1-1.3-.36,2.42,2.42,0,0,1-.91-1,3.08,3.08,0,0,1-.32-1.42v-.22a3.32,3.32,0,0,1,.32-1.47,2.51,2.51,0,0,1,.88-1,2.17,2.17,0,0,1,1.22-.37,2,2,0,0,1,1.63.7,2.85,2.85,0,0,1,.6,1.92V99h-4v.12a2.37,2.37,0,0,0,.55,1.6,1.75,1.75,0,0,0,1.39.64,2,2,0,0,0,.88-.18,2,2,0,0,0,.7-.58l.39.3A2.28,2.28,0,0,1,111.76,101.86Zm-.11-5.33a1.56,1.56,0,0,0-1.19.52,2.39,2.39,0,0,0-.59,1.39h3.39v-.07a2.07,2.07,0,0,0-.46-1.33A1.44,1.44,0,0,0,111.65,96.53Z"/><path class="cls-2" d="M123.37,30.6h0l1.87-4.5a2,2,0,0,0-1.72-.93h0a2,2,0,0,0-1.89,1.27l-11.55,28A4.71,4.71,0,0,0,110,55a1.46,1.46,0,0,0,.39,1.09,1.83,1.83,0,0,0,2.13.09,1.62,1.62,0,0,0,.61-.85v0h0l.18-.43,2.62-6.37,1.75-4.18Z"/><path class="cls-2" d="M148.55,54.74A1.71,1.71,0,0,0,149.1,56a2.14,2.14,0,0,0,2.84,0,1.72,1.72,0,0,0,.55-1.29V29h-3.94Z"/><path class="cls-2" d="M134.89,49.2h-3.75l2.57,6.08a2.35,2.35,0,0,0,.72.91,1.52,1.52,0,0,0,.93.31A1.68,1.68,0,0,0,137,54.8a2.36,2.36,0,0,0-.12-.75Z"/><polygon class="cls-2" points="134.57 48.4 133.15 44.97 133.13 44.97 129.38 44.97 128.51 44.97 118.31 44.97 116.9 48.4 129.95 48.4 130.81 48.4 134.56 48.4 134.57 48.4"/><polygon class="cls-2" points="129.04 44.17 132.8 44.17 125.69 27.11 123.81 31.66 129.04 44.17"/><path class="cls-2" d="M83.15,38.68v-.09l0-9.19V25.92a7.31,7.31,0,0,0-3,3.46h0l-.1.26c-.07.18-.14.37-.19.56l0,.14a7.17,7.17,0,0,0-.16.7l0,.26,0,.27c0,.28,0,.5,0,.71l0,8.89,0,7.91c0,.21,0,.44,0,.71l0,.28,0,.26c0,.23.09.46.16.68l0,.18c.05.17.11.35.18.52a7.39,7.39,0,0,0,.54,1.12h0a7.36,7.36,0,0,0,.47.7l.12.15c.11.14.23.28.35.41l.28.29.2.18q.23.21.48.4l.13.09a7,7,0,0,0,.59.39V52l0-8.35c0-.07,0-.14,0-.21V38.89C83.15,38.82,83.15,38.75,83.15,38.68Z"/><path class="cls-2" d="M100.29,27a12.29,12.29,0,0,0-7.21-2.1h-6.3a7.2,7.2,0,0,0-2.86.6v3.07l5.86,0h2.88a8.33,8.33,0,0,1,7.24,3.48,14.66,14.66,0,0,1,2.41,8.62,14.73,14.73,0,0,1-2.39,8.64,8.33,8.33,0,0,1-7.26,3.46H88.78l-4.86,0v3.06a7.2,7.2,0,0,0,2.86.6h6.3a12.39,12.39,0,0,0,7.21-2.08,12.92,12.92,0,0,0,4.53-5.65,20.37,20.37,0,0,0,1.54-8,20.25,20.25,0,0,0-1.54-8A13.09,13.09,0,0,0,100.29,27Z"/><polygon class="cls-2" points="188.5 48.4 187.08 44.97 187.06 44.97 183.31 44.97 182.44 44.97 172.25 44.97 170.83 48.4 183.88 48.4 184.74 48.4 188.49 48.4 188.5 48.4"/><path class="cls-2" d="M188.82,49.2h-3.75l2.57,6.08a2.35,2.35,0,0,0,.72.91,1.52,1.52,0,0,0,.93.31A1.68,1.68,0,0,0,191,54.8a2.36,2.36,0,0,0-.12-.75Z"/><path class="cls-2" d="M161.18,24.8H139.91a1.87,1.87,0,0,0-1.33.48,1.57,1.57,0,0,0-.5,1.22,1.62,1.62,0,0,0,.5,1.26,1.87,1.87,0,0,0,1.33.48h21.27a1.92,1.92,0,0,0,1.34-.46,1.55,1.55,0,0,0,.49-1.24,1.63,1.63,0,0,0-.5-1.26A1.87,1.87,0,0,0,161.18,24.8Z"/><path class="cls-2" d="M177.31,30.6h0l1.86-4.5a2,2,0,0,0-1.72-.93h0a2,2,0,0,0-1.89,1.27L164,54.4a4.7,4.7,0,0,0-.08.62,1.47,1.47,0,0,0,.39,1.09,1.83,1.83,0,0,0,2.13.09,1.62,1.62,0,0,0,.61-.85v0h0l.18-.43,2.62-6.37,1.75-4.18Z"/><polygon class="cls-2" points="182.97 44.17 186.73 44.17 179.63 27.12 177.75 31.66 182.97 44.17"/><path class="cls-1" d="M88.92.31A.4.4,0,0,1,89,.6V9a.43.43,0,0,1-.13.3.4.4,0,0,1-.29.11A.4.4,0,0,1,88.2,9V5.06H82.88V9a.45.45,0,0,1-.13.29.39.39,0,0,1-.29.12A.38.38,0,0,1,82.05,9V.6a.39.39,0,0,1,.12-.3.42.42,0,0,1,.3-.11.39.39,0,0,1,.29.12.39.39,0,0,1,.12.29V4.3H88.2V.6a.38.38,0,0,1,.12-.29.41.41,0,0,1,.3-.12A.4.4,0,0,1,88.92.31Z"/><path class="cls-1" d="M98.82,8.72a.39.39,0,0,1,.11.28.36.36,0,0,1-.11.28.39.39,0,0,1-.28.11H93.73A.38.38,0,0,1,93.33,9V.59A.38.38,0,0,1,93.73.2h4.81a.38.38,0,0,1,.39.39.36.36,0,0,1-.11.28.39.39,0,0,1-.28.1H94.16V4.26h3.79a.38.38,0,0,1,.39.39.36.36,0,0,1-.11.28.39.39,0,0,1-.28.11H94.16V8.6h4.38A.37.37,0,0,1,98.82,8.72Z"/><path class="cls-1" d="M108,8.71a.36.36,0,0,1,.11.28.38.38,0,0,1-.39.39H103a.38.38,0,0,1-.39-.39V.59a.37.37,0,0,1,.12-.28A.42.42,0,0,1,103,.2a.41.41,0,0,1,.29.11.37.37,0,0,1,.12.28v8h4.25A.4.4,0,0,1,108,8.71Z"/><path class="cls-1" d="M112.12,9.26a.39.39,0,0,1-.29.12.38.38,0,0,1-.41-.41V.6a.39.39,0,0,1,.12-.3.42.42,0,0,1,.3-.11.39.39,0,0,1,.29.12.39.39,0,0,1,.12.29V9A.45.45,0,0,1,112.12,9.26Z"/><path class="cls-1" d="M122.72,8.79a.43.43,0,0,1,.09.24.38.38,0,0,1-.12.29.41.41,0,0,1-.28.11.36.36,0,0,1-.31-.17l-2.83-3.84-2.82,3.83a.36.36,0,0,1-.31.18.33.33,0,0,1-.26-.11.36.36,0,0,1-.1-.24.46.46,0,0,1,.09-.26l3-4-3-4a.35.35,0,0,1-.09-.24.37.37,0,0,1,.12-.28.4.4,0,0,1,.28-.12.41.41,0,0,1,.33.16l2.82,3.84L122.12.33a.41.41,0,0,1,.32-.17.39.39,0,0,1,.27.1.31.31,0,0,1,.11.24.49.49,0,0,1-.09.25l-3,4Z"/><polygon class="cls-3" points="30.84 46.84 19.62 35.57 15.93 39.55 27.01 50.68 30.84 46.84"/><path class="cls-3" d="M14.31,30.25,4.62,20.52A2.71,2.71,0,0,0,.79,24.35l9.86,9.9Z"/><path class="cls-2" d="M30,13.13,17.65.79a2.71,2.71,0,0,0-3.83,3.83l12.5,12.5Z"/><path class="cls-3" d="M32.49,56.18l1.34,1.35,9.7,9.61L46.72,64a10.5,10.5,0,0,0-2.33-3.56l-8.06-8.09Z"/><path class="cls-2" d="M31.71,22.52l2.12,2.12,9.71,9.61,3.19-3.15a10.5,10.5,0,0,0-2.33-3.56l-9-9Z"/><path class="cls-3" d="M34.72,85.16h0l.83-.83,8.87-8.87c.15-.15.29-.31.43-.47l.13-.15.28-.34.14-.18.27-.38.1-.14c.11-.16.21-.33.3-.49l.13-.24.16-.29.13-.27.13-.29a10.69,10.69,0,0,0,.53-7h0l-2.37,2.34-1.22,1.21h0l-9.68,9.59-2,2h0L31,81.2h0l-3.75,3.75h0l-.83.83-12.6,12.6a2.71,2.71,0,0,0,3.83,3.83L30.13,89.76h0l.83-.83h0Z"/><path class="cls-2" d="M46.69,98,35.52,86l-3.77,3.77L42.9,101.86A2.71,2.71,0,0,0,46.71,98Z"/><path class="cls-2" d="M14.31,39.58h0l.79-.86,3.69-4L33.5,18.86l1.07-1.15L46.68,4.63A2.71,2.71,0,0,0,42.86.79L28.78,16.17,27.15,18l-.79.86L16,30.12l-.87,1-3.67,4-.79.86L3.2,44.12c-.22.22-.44.46-.64.7l0,.06c-.2.24-.38.48-.56.73l0,.06q-.27.38-.49.78l0,0a10.67,10.67,0,0,0-1,2.29h0q-.1.35-.18.71v0c-.05.24-.1.49-.13.73v0c0,.22-.05.44-.07.66v.16c0,.23,0,.46,0,.7a7.14,7.14,0,0,0,0,.73c0,.18,0,.37.08.55l0,.24q0,.19.09.39l.05.21c.05.2.11.4.18.61l3.59-3.88Z"/><path class="cls-2" d="M14.37,63.37l-10.29-11L.94,55.74a11,11,0,0,0,2.21,3.13L10.71,67Z"/><polygon class="cls-2" points="30.22 80.35 19.67 69.04 15.98 72.74 26.48 84.09 30.22 80.35"/><path class="cls-2" d="M18.87,68.19h0l.82-.83,3.81-3.82,8.16-8.19,3.84-3.85.82-.83,8.08-8.11c.15-.15.29-.31.43-.47L45,42l.28-.34.14-.18.27-.38.1-.14c.11-.16.21-.33.3-.49l.13-.24.15-.29.13-.27.13-.29a10.69,10.69,0,0,0,.53-7h0l-2.37,2.34-1.22,1.21h0l-9.68,9.59-1.36,1.36h0l-.82.83h0l-3.83,3.85h0L25,54.35l-9,9-.82.83L11.5,67.9h0l-.82.83h0L.79,78.65a2.71,2.71,0,1,0,3.83,3.83l9.74-9.77h0l.82-.83h0Z"/></g></g></g></svg>