<svg xmlns="http://www.w3.org/2000/svg" viewBox="0 0 49.98 50"><defs><style>.cls-1{fill:none;stroke:#fa6085;stroke-linejoin:round;stroke-width:2.08px;}.cls-2{fill:#fa6085;}</style></defs><title>Engineering</title><g id="Layer_2" data-name="Layer 2"><g id="front"><path class="cls-1" d="M2.08,16.15V30.39H23.57V16.15Zm8.73,8a2.21,2.21,0,0,1-2.29,2.14l-.34,0a2.18,2.18,0,0,1-2-2.11v-1.7a2.18,2.18,0,0,1,2-2.11l.34,0a2.32,2.32,0,0,1,1.62.63,2.06,2.06,0,0,1,.67,1.51Zm8.86,0a2.29,2.29,0,0,1-4.58,0v-1.7a2.22,2.22,0,0,1,2.29-2.14,2.36,2.36,0,0,1,1.62.63,2.06,2.06,0,0,1,.67,1.51Z"/><path class="cls-2" d="M19.79,50H5.21a1,1,0,0,1-1-1V35.42a1,1,0,0,1,1-1H19.79a1,1,0,0,1,1,1V49A1,1,0,0,1,19.79,50ZM6.25,47.92h12.5V36.46H6.25Z"/><path class="cls-2" d="M12.5,36.46a1,1,0,0,1-1-1V31.26a1,1,0,0,1,2.08,0v4.17A1,1,0,0,1,12.5,36.46Z"/><path class="cls-2" d="M1,49.78a1,1,0,0,1-1-1V41.62a5.16,5.16,0,0,1,5.16-5.16,1,1,0,0,1,0,2.08,3.08,3.08,0,0,0-3.08,3.08v7.12A1,1,0,0,1,1,49.78Z"/><path class="cls-2" d="M23.93,49.78a1,1,0,0,1-1-1V41.62a3.08,3.08,0,0,0-3.08-3.08,1,1,0,1,1,0-2.08A5.16,5.16,0,0,1,25,41.62v7.12A1,1,0,0,1,23.93,49.78Z"/><path class="cls-2" d="M48.94,11.45H32.28a1,1,0,0,1-1-1V1a1,1,0,0,1,1-1H48.94a1,1,0,0,1,1,1v9.37A1,1,0,0,1,48.94,11.45ZM33.32,9.37H47.9V2.08H33.32Z"/><path class="cls-2" d="M48.94,30.2H32.28a1,1,0,0,1-1-1V19.79a1,1,0,0,1,1-1H48.94a1,1,0,0,1,1,1v9.37A1,1,0,0,1,48.94,30.2ZM33.32,28.12H47.9V20.83H33.32Z"/><path class="cls-2" d="M17.7,11.45H1a1,1,0,0,1-1-1V1A1,1,0,0,1,1,0H17.7a1,1,0,0,1,1,1v9.37A1,1,0,0,1,17.7,11.45ZM2.08,9.37H16.66V2.08H2.08Z"/><path class="cls-2" d="M24.08,19.79A1,1,0,0,1,23.33,18l8.21-8.33A1,1,0,0,1,33,11.14l-8.21,8.33A1,1,0,0,1,24.08,19.79Z"/><path class="cls-2" d="M32.28,26h-.07L24,25.51a1,1,0,1,1,.13-2.08l8.21.52A1,1,0,0,1,32.28,26Z"/><path class="cls-2" d="M14.58,16.65a1,1,0,0,1-.81-.39L9.6,11.07a1,1,0,0,1,1.62-1.3L15.39,15a1,1,0,0,1-.81,1.69Z"/></g></g></svg>