<svg xmlns="http://www.w3.org/2000/svg" viewBox="0 0 57.84 55"><defs><style>.cls-1{fill:#fa6085;}</style></defs><title>Environmental</title><g id="Layer_2" data-name="Layer 2"><g id="front"><path class="cls-1" d="M30.36,55A27.52,27.52,0,0,1,2.87,27.49a1,1,0,1,1,1.93,0A25.56,25.56,0,1,0,30.36,1.93a25.29,25.29,0,0,0-11.23,2.6,1,1,0,0,1-.86-1.74A27.21,27.21,0,0,1,30.36,0a27.49,27.49,0,0,1,0,55Z"/><path class="cls-1" d="M54.79,31.44a1,1,0,0,1-.51-.15l-5-3.15L40.73,29.2A.92.92,0,0,1,40,29l-6.92-6-10.6,1.32a.93.93,0,0,1-.87-.35c-3-3.71,1.53-10.61,2.06-11.38a1,1,0,0,1,.68-.41l5.8-.72L32,8a1,1,0,0,1,.72-.49l6.73-.84,2.81-2.56a1,1,0,0,1,1.3,1.43l-3,2.77a.94.94,0,0,1-.53.24l-6.55.82L31.58,12.8a1,1,0,0,1-.72.49L25,14c-1.21,1.9-3.33,6.07-2.2,8.3L33.24,21a.92.92,0,0,1,.75.23l6.92,6,8.45-1a.94.94,0,0,1,.63.14l5,3.15,1.51-.19a1,1,0,0,1,.24,1.92l-1.85.23Z"/><path class="cls-1" d="M31.41,45h0c-1.8,0-3.1-2.43-3.35-2.92a1,1,0,0,1-.1-.43V38.8l-4.8-2.63a.93.93,0,0,1-.4-.43L19.6,29.17a1,1,0,0,1,.49-1.3l3.16-1.36a.91.91,0,0,1,.33-.08L32.41,26a1,1,0,0,1,.86.44l4.55,7a1,1,0,0,1,.15.67l-.88,5.74a1,1,0,0,1-.27.53l-4,4.11A2.12,2.12,0,0,1,31.41,45Zm-1.52-3.59c.52.93,1.24,1.85,1.61,1.61l3.71-3.79L36,34.15,32,28l-8.11.4-2.07.89,2.59,5.38,5,2.76a1,1,0,0,1,.5.85v3.17Z"/><path class="cls-1" d="M31.62,55H31.5a1,1,0,0,1-.84-1.07L31,50.78,18.5,45.88a1,1,0,0,1-.6-.72L16.32,37,8.77,34.42l-2.4,3.16a1,1,0,1,1-1.54-1.17L7.65,32.7a1,1,0,0,1,1.08-.33l8.73,3a1,1,0,0,1,.64.73l1.59,8.22,12.75,5a1,1,0,0,1,.61,1l-.48,3.88A1,1,0,0,1,31.62,55Z"/><path class="cls-1" d="M4,28.48A1,1,0,0,1,3.15,28L1.94,26C.21,23,0,18.21,0,18,.14,11.29,5.72,7.48,6,7.32c3.81-2.89,4.61-5.56,4.62-5.58a1,1,0,0,1,1.68-.35c4.91,6.07,4.6,11.42,4.58,11.65C17,21.5,8.66,25.92,8.31,26.11c-1.15.73-3.86,2.25-3.86,2.25A1,1,0,0,1,4,28.48ZM1.93,18s.19,4.5,1.68,7l.72,1.21c.88-.5,2.25-1.28,3-1.77C7.49,24.36,15,20.33,14.91,13c0-.12.21-4.21-3.2-9.12a17.12,17.12,0,0,1-4.63,5C7,9,2.05,12.35,1.93,18Z"/><path class="cls-1" d="M3.76,28.36a1,1,0,0,1-.84-1.43,22.7,22.7,0,0,0,3.2-10.24C6.2,14.56,8.71,9.16,9,8.55a1,1,0,0,1,1.75.82c-1,2.16-2.65,6.08-2.7,7.38a24.56,24.56,0,0,1-3.44,11.1A1,1,0,0,1,3.76,28.36Z"/><path class="cls-1" d="M6.9,19.16a1.06,1.06,0,0,1-.25,0,1,1,0,0,1-.59-.46L3.65,14.45a1,1,0,0,1,1.68-1l1.93,3.38,3.31-2a1,1,0,1,1,1,1.66L7.39,19A1,1,0,0,1,6.9,19.16Z"/></g></g></svg>