<svg xmlns="http://www.w3.org/2000/svg" viewBox="0 0 77.03 51.04"><defs><style>.cls-1{fill:#724ef8;}</style></defs><title>F</title><g id="Layer_2" data-name="Layer 2"><g id="front"><path class="cls-1" d="M40.74,0a2.34,2.34,0,0,1,0,1.41c-.63,2.47-1.25,4.94-1.86,7.41-.37,1.5-.67,1.75-2.22,1.75-4.16,0-8.32,0-12.49,0a1,1,0,0,0-1.15.89c-.6,2.54-1.26,5.07-1.9,7.61-.21.83-.2.86.66.87H32c1.12,0,1.48.44,1.22,1.52q-1,4.06-2,8.12a1.5,1.5,0,0,1-1.69,1.24H19.27c-1,0-1.13.1-1.38,1.09q-2.23,9-4.48,18A1.42,1.42,0,0,1,12,51Q6.54,51,1.12,51c-.94,0-1.29-.53-1-1.51.35-1.4.72-2.8,1.07-4.2L5.3,28.63l4.8-19.22c.7-2.79,1.38-5.58,2.09-8.37a9.06,9.06,0,0,1,.4-1Z"/><path class="cls-1" d="M60.89,9.78c1,0,2,0,3,0a.88.88,0,0,0,1-.77c.35-1.54.77-3.06,1.15-4.59A1.53,1.53,0,0,1,67.81,3q2.25,0,4.49,0c1.2,0,1.55.47,1.25,1.62L72.47,8.92c-.21.81-.18.84.61.85h2.64c1.09,0,1.48.45,1.23,1.48-.39,1.64-.81,3.28-1.25,4.91a1.46,1.46,0,0,1-1.64,1.13c-1,0-1.94,0-2.91,0a.84.84,0,0,0-.95.71q-.58,2.3-1.18,4.59c-.13.48,0,.68.52.66,1,0,2,0,3,0s1.3.49,1.09,1.37c-.4,1.68-.84,3.36-1.29,5a1.22,1.22,0,0,1-1.4,1H68.1c-.89,0-1.11.2-1.32,1q-.58,2.36-1.2,4.72a1.24,1.24,0,0,1-1.36,1H59.4c-1.12,0-1.46-.41-1.19-1.51.37-1.49.74-3,1.14-4.46.15-.55,0-.78-.57-.78H52.83a1.08,1.08,0,0,0-1.2,1c-.34,1.5-.73,3-1.11,4.47-.27,1.06-.6,1.31-1.72,1.32-1.56,0-3.13,0-4.69,0-1,0-1.3-.46-1.07-1.39.37-1.54.76-3.07,1.13-4.6.16-.66.07-.75-.63-.76H40.63c-.84,0-1.16-.39-1-1.22q.6-2.57,1.25-5.12a1.4,1.4,0,0,1,1.46-1.09c1,0,2,0,3,0a.91.91,0,0,0,1-.8c.35-1.47.74-2.93,1.11-4.4.17-.67.09-.76-.62-.77-.92,0-1.85,0-2.77,0S42.8,16.8,43,15.83q.58-2.37,1.18-4.73a1.54,1.54,0,0,1,1.69-1.32c.95,0,1.9,0,2.84,0A.94.94,0,0,0,49.83,9Q50.4,6.63,51,4.3A1.42,1.42,0,0,1,52.59,3q2.35,0,4.69,0c1,0,1.39.49,1.15,1.51-.35,1.49-.75,3-1.13,4.46-.19.74-.16.78.62.78ZM57.52,23.26c1,0,2.07,0,3.1,0a.78.78,0,0,0,.9-.6q.63-2.42,1.24-4.84c.09-.35,0-.53-.44-.52-2.13,0-4.27,0-6.41,0A.81.81,0,0,0,55,18c-.36,1.5-.74,3-1.1,4.48-.17.69-.13.75.6.75Z"/></g></g></svg>