<svg xmlns="http://www.w3.org/2000/svg" viewBox="0 0 19.37 19.37"><defs><style>.cls-1{fill:#3ea0dd;}</style></defs><title>flag-blue</title><g id="Layer_2" data-name="Layer 2"><g id="back"><path class="cls-1" d="M4.25,10.77V6.46H.55A9.64,9.64,0,0,0,0,9.68a9.84,9.84,0,0,0,.06,1.1H4.25Z"/><path class="cls-1" d="M4.25,1.92V1.68A9.76,9.76,0,0,0,1.67,4.25H4.25Z"/><path class="cls-1" d="M9.68,19.37a9.6,9.6,0,0,0,5.8-1.93H3.89A9.6,9.6,0,0,0,9.68,19.37Z"/><path class="cls-1" d="M1.63,15.06H17.74a9.56,9.56,0,0,0,1-2H.61A9.55,9.55,0,0,0,1.63,15.06Z"/><path class="cls-1" d="M19.33,8.8H10.8V6.33h8a9.67,9.67,0,0,0-1-2h-7V1.92h4.67a9.67,9.67,0,0,0-9-1.37v3.7h4.31v2.2H6.45v4.31H19.31a9.82,9.82,0,0,0,.06-1.1Q19.37,9.24,19.33,8.8Z"/></g></g></svg>