<svg xmlns="http://www.w3.org/2000/svg" viewBox="0 0 38.39 51.04"><defs><style>.cls-1{fill:#fa6085;}</style></defs><title>Grants</title><g id="Layer_2" data-name="Layer 2"><g id="front"><path class="cls-1" d="M13.28,0a3.11,3.11,0,0,0-3.1,3.1,3.13,3.13,0,0,0,2.9,3.1l.05,10.93C9.74,26.16,5,33.81,2.26,39.53.86,42.41-.11,44.76,0,46.89a4.08,4.08,0,0,0,1.31,2.83A6,6,0,0,0,4.58,51H33.81a6,6,0,0,0,3.26-1.32,4.08,4.08,0,0,0,1.3-2.83c.12-2.12-.85-4.48-2.25-7.36-2.77-5.72-7.49-13.37-10.87-22.4L25.31,6.2a3.13,3.13,0,0,0,2.9-3.1A3.11,3.11,0,0,0,25.11,0H13.28Zm0,2.32H25.11a.78.78,0,1,1,0,1.56h-1A1.16,1.16,0,0,0,23,5l-.05,12.29a1.16,1.16,0,0,0,.07.4C26.5,27.1,31.36,35,34,40.52c1.34,2.78,2.08,5,2,6.23A1.56,1.56,0,0,1,35.53,48a3.87,3.87,0,0,1-2,.72H4.83a3.86,3.86,0,0,1-2-.72,1.56,1.56,0,0,1-.53-1.23c-.07-1.22.67-3.46,2-6.23C7,35,11.89,27.1,15.38,17.73a1.16,1.16,0,0,0,.07-.4L15.38,5a1.16,1.16,0,0,0-1.16-1.16h-.94a.78.78,0,1,1,0-1.56Z"/><path class="cls-1" d="M14.83,27a1.16,1.16,0,0,0-1.07.72c-1.9,4.68-4.46,8.89-5.81,12.07-.68,1.59-1.19,2.93-.77,4.31a2.68,2.68,0,0,0,1.47,1.62A5.07,5.07,0,0,0,11,46H27.33a5.68,5.68,0,0,0,2.42-.49,2.86,2.86,0,0,0,1.45-1.66c.43-1.4-.09-2.75-.79-4.31-1.4-3.12-4-7.19-5.91-11.85A1.16,1.16,0,0,0,23.43,27Z"/></g></g></svg>