<svg xmlns="http://www.w3.org/2000/svg" viewBox="0 0 210.46 109.65"><defs><style>.cls-1{fill:#fff;}.cls-2{fill:#edb0c1;}</style></defs><title>Helix-logo-White-on-Pink</title><g id="Layer_2" data-name="Layer 2"><g id="back"><g id="footerred"><g id="footerwlogos"><g id="multicolor_logo" data-name="multicolor logo"><path class="cls-1" d="M97,66.09H95.9v-6.3H88.39v6.3H87.28V52.95h1.11v5.9H95.9v-5.9H97Z"/><path class="cls-1" d="M103.88,66.27a4.24,4.24,0,0,1-2.25-.61,4.18,4.18,0,0,1-1.57-1.71,5.33,5.33,0,0,1-.56-2.46V61.1a5.74,5.74,0,0,1,.55-2.54,4.34,4.34,0,0,1,1.52-1.77,3.75,3.75,0,0,1,2.11-.65,3.53,3.53,0,0,1,2.82,1.21,4.92,4.92,0,0,1,1,3.32v.6h-7v.21a4.09,4.09,0,0,0,1,2.77,3,3,0,0,0,2.4,1.11,3.52,3.52,0,0,0,1.53-.32,3.39,3.39,0,0,0,1.2-1l.68.51A3.94,3.94,0,0,1,103.88,66.27Zm-.2-9.2a2.7,2.7,0,0,0-2.05.89,4.13,4.13,0,0,0-1,2.4h5.86v-.12a3.58,3.58,0,0,0-.8-2.29A2.49,2.49,0,0,0,103.69,57.06Z"/><path class="cls-1" d="M110.86,66.09h-1.08V52.23h1.08Z"/><path class="cls-1" d="M115,66.09h-1.08V52.23H115Z"/><path class="cls-1" d="M121.71,66.27a4.24,4.24,0,0,1-2.25-.61,4.18,4.18,0,0,1-1.57-1.71,5.33,5.33,0,0,1-.56-2.46V61.1a5.74,5.74,0,0,1,.55-2.54,4.35,4.35,0,0,1,1.52-1.77,3.75,3.75,0,0,1,2.11-.65,3.53,3.53,0,0,1,2.82,1.21,4.92,4.92,0,0,1,1,3.32v.6h-7v.21a4.09,4.09,0,0,0,1,2.77,3,3,0,0,0,2.4,1.11,3.52,3.52,0,0,0,1.53-.32,3.39,3.39,0,0,0,1.2-1l.68.51A3.94,3.94,0,0,1,121.71,66.27Zm-.2-9.2a2.7,2.7,0,0,0-2.05.89,4.13,4.13,0,0,0-1,2.4h5.86v-.12a3.58,3.58,0,0,0-.8-2.29A2.49,2.49,0,0,0,121.52,57.06Z"/><path class="cls-1" d="M128.51,56.32l0,1.67a3.88,3.88,0,0,1,1.37-1.38,3.56,3.56,0,0,1,1.81-.47,2.93,2.93,0,0,1,2.34.88,4,4,0,0,1,.78,2.65v6.41h-1.07V59.67a3,3,0,0,0-.55-1.95,2.17,2.17,0,0,0-1.75-.64,2.73,2.73,0,0,0-1.77.63,3.67,3.67,0,0,0-1.14,1.69v6.69h-1.07V56.32Z"/><path class="cls-1" d="M137.57,53.5a.72.72,0,0,1,.2-.52.71.71,0,0,1,.54-.21.72.72,0,0,1,.55.21.71.71,0,0,1,.2.52.7.7,0,0,1-.2.51.73.73,0,0,1-.55.21.72.72,0,0,1-.54-.21A.71.71,0,0,1,137.57,53.5Zm1.27,12.58h-1.08V56.32h1.08Z"/><path class="cls-1" d="M145.38,65.36a2.85,2.85,0,0,0,1.89-.64,2.24,2.24,0,0,0,.83-1.65h1a3.06,3.06,0,0,1-.56,1.63,3.51,3.51,0,0,1-1.37,1.15,4.12,4.12,0,0,1-1.83.42,3.77,3.77,0,0,1-3-1.34,5.4,5.4,0,0,1-1.12-3.59V61a6.1,6.1,0,0,1,.51-2.55,3.89,3.89,0,0,1,1.45-1.71,4,4,0,0,1,2.21-.6,3.77,3.77,0,0,1,2.65,1,3.49,3.49,0,0,1,1.11,2.52h-1a2.61,2.61,0,0,0-2.72-2.55,2.69,2.69,0,0,0-2.27,1.06,4.78,4.78,0,0,0-.81,3v.32a4.67,4.67,0,0,0,.81,2.91A2.71,2.71,0,0,0,145.38,65.36Z"/><path class="cls-1" d="M87.28,84.9V71.76H91a5.71,5.71,0,0,1,2.9.74,5.08,5.08,0,0,1,2,2.11,6.63,6.63,0,0,1,.72,3.12v1.21a6.64,6.64,0,0,1-.71,3.12,5.07,5.07,0,0,1-2,2.1,5.88,5.88,0,0,1-3,.74Zm1.11-12.2V84h2.49a4.29,4.29,0,0,0,3.33-1.38,5.32,5.32,0,0,0,1.25-3.73V77.7a5.2,5.2,0,0,0-1.24-3.63A4.21,4.21,0,0,0,91,72.7Z"/><path class="cls-1" d="M105.29,84.9a5.1,5.1,0,0,1-.21-1.36,3.76,3.76,0,0,1-1.45,1.14,4.44,4.44,0,0,1-1.86.4,3.27,3.27,0,0,1-2.28-.78,2.56,2.56,0,0,1-.87-2,2.61,2.61,0,0,1,1.19-2.26,5.7,5.7,0,0,1,3.31-.83h2V78.11a2.14,2.14,0,0,0-.65-1.65,2.67,2.67,0,0,0-1.88-.6,2.94,2.94,0,0,0-1.87.58,1.72,1.72,0,0,0-.74,1.39H98.86a2.51,2.51,0,0,1,1.08-2A4.17,4.17,0,0,1,102.6,75a3.8,3.8,0,0,1,2.58.82,2.93,2.93,0,0,1,1,2.28v4.62a5.73,5.73,0,0,0,.3,2.12v.11Zm-3.39-.78a3.62,3.62,0,0,0,1.94-.52,3.08,3.08,0,0,0,1.24-1.4V80.05h-1.93a4.84,4.84,0,0,0-2.53.59,1.77,1.77,0,0,0-.91,1.57,1.75,1.75,0,0,0,.61,1.36A2.29,2.29,0,0,0,101.9,84.12Z"/><path class="cls-1" d="M110.71,72.63v2.5h2V76h-2v6.51a2,2,0,0,0,.29,1.21,1.14,1.14,0,0,0,1,.4,6.67,6.67,0,0,0,.88-.09l0,.88a3.53,3.53,0,0,1-1.15.15,1.93,1.93,0,0,1-1.62-.64,3,3,0,0,1-.51-1.9V76h-1.8v-.88h1.8v-2.5Z"/><path class="cls-1" d="M121.13,84.9a5.1,5.1,0,0,1-.21-1.36,3.76,3.76,0,0,1-1.45,1.14,4.44,4.44,0,0,1-1.86.4,3.27,3.27,0,0,1-2.28-.78,2.56,2.56,0,0,1-.87-2,2.61,2.61,0,0,1,1.19-2.26,5.7,5.7,0,0,1,3.31-.83h2V78.11a2.14,2.14,0,0,0-.65-1.65,2.67,2.67,0,0,0-1.88-.6,2.94,2.94,0,0,0-1.87.58,1.72,1.72,0,0,0-.74,1.39h-1.08a2.51,2.51,0,0,1,1.08-2,4.17,4.17,0,0,1,2.66-.85,3.8,3.8,0,0,1,2.58.82A2.93,2.93,0,0,1,122,78v4.62a5.73,5.73,0,0,0,.3,2.12v.11Zm-3.39-.78a3.62,3.62,0,0,0,1.94-.52,3.08,3.08,0,0,0,1.24-1.4V80.05H119a4.84,4.84,0,0,0-2.53.59,1.77,1.77,0,0,0-.91,1.57,1.75,1.75,0,0,0,.61,1.36A2.29,2.29,0,0,0,117.73,84.12Z"/><path class="cls-1" d="M94.72,100.47A2.13,2.13,0,0,0,94,98.75a8.1,8.1,0,0,0-2.81-1.21,9.84,9.84,0,0,1-3-1.25,3,3,0,0,1-.09-5,5.1,5.1,0,0,1,3.17-.94,5.26,5.26,0,0,1,2.34.51,3.83,3.83,0,0,1,1.6,1.41,3.7,3.7,0,0,1,.57,2H94.64a2.76,2.76,0,0,0-.92-2.17,3.58,3.58,0,0,0-2.47-.82,3.89,3.89,0,0,0-2.4.67A2.1,2.1,0,0,0,88,93.76a2,2,0,0,0,.8,1.64,7.44,7.44,0,0,0,2.57,1.12,12.1,12.1,0,0,1,2.68,1,3.82,3.82,0,0,1,1.37,1.24,3.1,3.1,0,0,1,.46,1.71,3,3,0,0,1-1.24,2.49,5.28,5.28,0,0,1-3.27.94,6.41,6.41,0,0,1-2.55-.5A3.89,3.89,0,0,1,87,102a3.59,3.59,0,0,1-.6-2h1.11a2.62,2.62,0,0,0,1,2.19,4.39,4.39,0,0,0,2.76.8,4.09,4.09,0,0,0,2.46-.68A2.12,2.12,0,0,0,94.72,100.47Z"/><path class="cls-1" d="M101.76,103.88a4.24,4.24,0,0,1-2.25-.61,4.18,4.18,0,0,1-1.57-1.71,5.33,5.33,0,0,1-.56-2.46v-.39a5.74,5.74,0,0,1,.55-2.54,4.34,4.34,0,0,1,1.52-1.77,3.75,3.75,0,0,1,2.11-.65A3.53,3.53,0,0,1,104.38,95a4.92,4.92,0,0,1,1,3.32v.6h-7v.21a4.09,4.09,0,0,0,1,2.77,3,3,0,0,0,2.4,1.11,3.52,3.52,0,0,0,1.53-.32,3.39,3.39,0,0,0,1.2-1l.68.51A3.94,3.94,0,0,1,101.76,103.88Zm-.2-9.2a2.7,2.7,0,0,0-2.05.89,4.13,4.13,0,0,0-1,2.4h5.86v-.12a3.58,3.58,0,0,0-.8-2.29A2.49,2.49,0,0,0,101.56,94.68Z"/><path class="cls-1" d="M112,94.86a4.06,4.06,0,0,0-.73-.06,2.64,2.64,0,0,0-1.71.56,3.09,3.09,0,0,0-1,1.64v6.7h-1.07V93.94h1.06l0,1.55a2.87,2.87,0,0,1,2.75-1.73,1.78,1.78,0,0,1,.71.12Z"/><path class="cls-1" d="M116.94,102.22l3-8.27H121l-3.65,9.76h-.88l-3.66-9.76h1.11Z"/><path class="cls-1" d="M122.72,91.12a.72.72,0,0,1,.2-.52.71.71,0,0,1,.54-.21.72.72,0,0,1,.55.21.71.71,0,0,1,.2.52.7.7,0,0,1-.2.51.73.73,0,0,1-.55.21.72.72,0,0,1-.54-.21A.71.71,0,0,1,122.72,91.12ZM124,103.7h-1.08V93.94H124Z"/><path class="cls-1" d="M130.54,103a2.85,2.85,0,0,0,1.89-.64,2.24,2.24,0,0,0,.83-1.65h1a3.06,3.06,0,0,1-.56,1.63,3.5,3.5,0,0,1-1.37,1.15,4.12,4.12,0,0,1-1.83.42,3.77,3.77,0,0,1-3-1.34A5.4,5.4,0,0,1,126.37,99v-.32a6.1,6.1,0,0,1,.51-2.55,3.89,3.89,0,0,1,1.45-1.71,4,4,0,0,1,2.21-.6,3.76,3.76,0,0,1,2.65,1,3.49,3.49,0,0,1,1.11,2.52h-1a2.61,2.61,0,0,0-2.73-2.55,2.69,2.69,0,0,0-2.27,1.06,4.78,4.78,0,0,0-.81,3V99a4.67,4.67,0,0,0,.81,2.91A2.71,2.71,0,0,0,130.54,103Z"/><path class="cls-1" d="M140.23,103.88a4.24,4.24,0,0,1-2.25-.61,4.18,4.18,0,0,1-1.57-1.71,5.33,5.33,0,0,1-.56-2.46v-.39a5.74,5.74,0,0,1,.55-2.54,4.34,4.34,0,0,1,1.52-1.77,3.75,3.75,0,0,1,2.11-.65A3.53,3.53,0,0,1,142.85,95a4.92,4.92,0,0,1,1,3.32v.6h-7v.21a4.09,4.09,0,0,0,1,2.77,3,3,0,0,0,2.4,1.11,3.52,3.52,0,0,0,1.53-.32,3.39,3.39,0,0,0,1.2-1l.68.51A3.94,3.94,0,0,1,140.23,103.88Zm-.2-9.2a2.7,2.7,0,0,0-2.05.89,4.13,4.13,0,0,0-1,2.4h5.86v-.12a3.58,3.58,0,0,0-.8-2.29A2.49,2.49,0,0,0,140,94.68Z"/><polygon class="cls-2" points="32.84 49.86 20.89 37.87 16.96 42.11 28.75 53.95 32.84 49.86"/><path class="cls-2" d="M15.24,32.2,4.92,21.85A2.88,2.88,0,0,0,.84,25.93L11.33,36.46Z"/><path class="cls-2" d="M31.92,14,18.79.84a2.88,2.88,0,0,0-4.08,4.08L28,18.23Z"/><path class="cls-2" d="M34.59,59.81,36,61.25,46.35,71.47l3.39-3.36a11.18,11.18,0,0,0-2.48-3.79l-8.58-8.61Z"/><path class="cls-2" d="M33.76,24,36,26.23,46.35,36.45l3.39-3.36a11.18,11.18,0,0,0-2.48-3.79l-9.57-9.57Z"/><path class="cls-1" d="M37,90.66h0l.88-.88,9.44-9.44c.16-.16.31-.33.46-.5l.14-.16.3-.36.15-.19.28-.4.1-.15c.11-.17.22-.35.32-.53l.14-.26.17-.31.14-.29.14-.3a11.38,11.38,0,0,0,.56-7.46h0l-2.52,2.5-1.3,1.29h0L36,83.42,33.9,85.56h0l-.88.88h0l-4,4h0l-.88.88L14.74,104.73a2.88,2.88,0,0,0,4.08,4.08L32.07,95.55h0l.88-.88h0Z"/><path class="cls-2" d="M49.71,104.31,37.81,91.57l-4,4,11.88,12.85a2.88,2.88,0,0,0,4.05-4.11Z"/><path class="cls-1" d="M15.24,42.14h0l.84-.91L20,37,35.66,20.08l1.13-1.23L49.7,4.93A2.88,2.88,0,0,0,45.63.84l-15,16.37-1.74,1.9-.84.92-11,12-.93,1-3.9,4.26-.84.92L3.4,47c-.24.24-.46.49-.68.74l-.05.06c-.21.25-.41.51-.59.78l0,.06q-.28.41-.53.83l0,0a11.36,11.36,0,0,0-1,2.44h0q-.11.37-.19.76v0c-.06.26-.1.52-.14.78v0c0,.23-.06.47-.08.71v.17c0,.25,0,.49,0,.74a7.58,7.58,0,0,0,0,.78c0,.2,0,.39.08.59l.05.25q0,.21.09.42l.06.23c.06.21.12.43.19.65l3.82-4.13Z"/><path class="cls-2" d="M15.3,67.46l-11-11.73L1,59.33a11.7,11.7,0,0,0,2.35,3.33l8,8.7Z"/><polygon class="cls-2" points="32.17 85.53 20.94 73.5 17.01 77.43 28.19 89.52 32.17 85.53"/><path class="cls-1" d="M20.09,72.59h0l.88-.88L25,67.65l8.69-8.72,4.08-4.1.88-.88,8.61-8.63c.16-.16.31-.33.46-.5l.14-.16.3-.36.15-.19.28-.4.11-.15c.11-.17.22-.35.32-.53l.14-.26.16-.31.14-.29.14-.3a11.38,11.38,0,0,0,.56-7.46h0l-2.52,2.5-1.3,1.29h0L36,48.41l-1.45,1.45h0l-.88.88h0l-4.08,4.1h0l-3,3L17,67.49l-.88.88-3.9,3.91h0l-.88.88h0L.84,83.72A2.88,2.88,0,1,0,4.92,87.8L15.29,77.4h0l.88-.88h0Z"/><path class="cls-1" d="M123.39,34.34a7.51,7.51,0,0,0,3,.62h11a1.93,1.93,0,0,0,0-3.86h-2l-12,.05Z"/><path class="cls-1" d="M123.43,20.42l13.95,0a1.93,1.93,0,0,0,0-3.86H123.43s0,0,0,.06v3.76Z"/><path class="cls-1" d="M151.13,16.33v-.1l0-12.42a1.79,1.79,0,0,0-.61-1.35A1.86,1.86,0,0,0,149,2H149a1.81,1.81,0,0,0-1.6,1.79c0,.49,0,1.16,0,1.84,0,1.57,0,2.27-.05,2.61h0v.63c0,.32,0,.56,0,.78l0,9.28,0,8.26c0,.22,0,.46,0,.74l0,.29,0,.27a7.41,7.41,0,0,0,.17.73l0,.15c.06.2.13.39.2.58a7.62,7.62,0,0,0,3.27,3.87h0V30.2h0l0-8.65c0-.07,0-.15,0-.22V16.55C151.13,16.48,151.13,16.4,151.13,16.33Z"/><path class="cls-1" d="M139.3,4a1.93,1.93,0,0,0-1.93-1.93h-11a7.51,7.51,0,0,0-3,.62V5.9l14,.05A1.93,1.93,0,0,0,139.3,4Z"/><path class="cls-1" d="M110.48,16a7.48,7.48,0,0,0,.61-3V4.17a1.93,1.93,0,0,0-1.92-1.93h-.1a1.93,1.93,0,0,0-1.84,1.92v2l0,9.78Z"/><path class="cls-1" d="M85.28,20.56A8.49,8.49,0,0,1,89,16.82V4.12a1.77,1.77,0,0,0-.57-1.33,1.88,1.88,0,0,0-1.36-.55,1.92,1.92,0,0,0-1.43.55,1.8,1.8,0,0,0-.55,1.34V20.75l.09-.19Z"/><path class="cls-1" d="M165.43,31h-1.51l-12,.05v3.19a7.51,7.51,0,0,0,3,.62h10.51a1.93,1.93,0,0,0,0-3.86Z"/><path class="cls-1" d="M107.2,19.61a7.69,7.69,0,0,0,1.59-1.19l0,0,.31-.33,0,0,.27-.32.06-.07.23-.31.07-.1.23-.36,0-.07h0l-17.25,0c-.23,0-.45,0-.67,0l-.17,0a7.51,7.51,0,0,0-1.3.26l-.16,0a7.64,7.64,0,0,0-3,1.83h0l-.3.31,0,0-.26.32-.06.07-.23.31-.07.1q-.14.21-.27.43H89.9l13.53,0c.23,0,.45,0,.68,0l.16,0c.22,0,.44-.06.66-.1h0c.22,0,.44-.1.66-.16l.14,0a7.72,7.72,0,0,0,1.48-.64Z"/><path class="cls-1" d="M85.76,21.42a7.48,7.48,0,0,0-.61,3v8.83A1.91,1.91,0,0,0,86.28,35a2.18,2.18,0,0,0,.78.13,2,2,0,0,0,1.39-.56h0a2,2,0,0,0,.25-.28,1.91,1.91,0,0,0,.31-1v-2l0-9.78Z"/><path class="cls-1" d="M111,16.82a8.47,8.47,0,0,1-3.81,3.76V33.17a1.9,1.9,0,0,0,.53,1.39,1.84,1.84,0,0,0,1.4.54,2,2,0,0,0,1.39-.56h0a1.78,1.78,0,0,0,.59-1.37V16.63l-.09.19Z"/><path class="cls-1" d="M122.57,16.6c0-.06,0-.11,0-.17V11.34l0-8.21-.35.23h0l0,0a7.56,7.56,0,0,0-1.79,1.67h0A7.69,7.69,0,0,0,119.27,7c-.07.19-.14.38-.2.58l0,.15a7.48,7.48,0,0,0-.17.73l0,.27c0,.09,0,.19,0,.28,0,.29,0,.52,0,.74l0,9.28V27.3c0,.22,0,.45,0,.74,0,.09,0,.2,0,.29l0,.27a7.4,7.4,0,0,0,.17.73l0,.15c.06.2.13.39.2.58a7.68,7.68,0,0,0,1.1,1.95h0a7.56,7.56,0,0,0,1.78,1.67h0c.13.08.25.17.38.25V31.16h0V30.3l0-8.65c0-.07,0-.15,0-.22v-.16h0v-.86h0V16.66S122.57,16.62,122.57,16.6Z"/><path class="cls-1" d="M175.91,2.24a1.92,1.92,0,0,0-1.43.55,1.8,1.8,0,0,0-.55,1.34v29a1.9,1.9,0,0,0,.53,1.39,1.84,1.84,0,0,0,1.4.54,2,2,0,0,0,1.39-.56h0a1.78,1.78,0,0,0,.59-1.37v-29a1.77,1.77,0,0,0-.57-1.33A1.88,1.88,0,0,0,175.91,2.24Z"/><path class="cls-1" d="M200,18.66l.53-.71L210.08,5.2a1.8,1.8,0,0,0,.36-1.4,1.92,1.92,0,0,0-.81-1.3,1.86,1.86,0,0,0-1.15-.39l-.27,0a1.77,1.77,0,0,0-1.25.72l-9.56,12.79-2.26,3h0l-.53.71h0l-9.52,12.74a1.78,1.78,0,0,0-.36,1.45,2,2,0,0,0,.78,1.29,1.84,1.84,0,0,0,1.45.41,1.9,1.9,0,0,0,1.26-.79L197,22.64h0l.53-.71h0Z"/><path class="cls-1" d="M200.56,19.37l-2.44,3.27,8.83,11.82a1.9,1.9,0,0,0,1.26.79,1.84,1.84,0,0,0,1.45-.41,2,2,0,0,0,.78-1.28h0a1.78,1.78,0,0,0-.36-1.45Z"/><path class="cls-1" d="M197,14.67,188.21,2.84A1.77,1.77,0,0,0,187,2.12l-.27,0a1.87,1.87,0,0,0-1.15.39,1.92,1.92,0,0,0-.81,1.3,1.8,1.8,0,0,0,.36,1.4l9.52,12.75Z"/></g></g></g></g></g></svg>