<svg xmlns="http://www.w3.org/2000/svg" viewBox="0 0 197.7 103"><defs><style>.cls-1{fill:#262626;}.cls-2{fill:#fa6085;}.cls-3{fill:#3ea0dd;}.cls-4{fill:#724ef8;}</style></defs><title>Helix-logo</title><g id="Layer_2" data-name="Layer 2"><g id="front"><g id="header_menu" data-name="header menu"><g id="_Group_" data-name="&lt;Group&gt;"><g id="multicolor_logo" data-name="multicolor logo"><path class="cls-1" d="M91.14,62.08H90.08V56.16H83v5.92H82V49.74h1v5.54h7.05V49.74h1.05Z"/><path class="cls-1" d="M97.59,62.25a4,4,0,0,1-2.11-.58A3.92,3.92,0,0,1,94,60.07a5,5,0,0,1-.53-2.31v-.37A5.39,5.39,0,0,1,94,55a4.08,4.08,0,0,1,1.43-1.67,3.53,3.53,0,0,1,2-.61A3.31,3.31,0,0,1,100,53.88,4.62,4.62,0,0,1,101,57v.57H94.48v.2a3.84,3.84,0,0,0,.89,2.6,2.85,2.85,0,0,0,2.25,1,3.31,3.31,0,0,0,1.44-.3,3.18,3.18,0,0,0,1.13-.95l.64.48A3.7,3.7,0,0,1,97.59,62.25ZM97.4,53.6a2.54,2.54,0,0,0-1.93.84,3.87,3.87,0,0,0-1,2.25H100v-.11a3.37,3.37,0,0,0-.75-2.15A2.34,2.34,0,0,0,97.4,53.6Z"/><path class="cls-1" d="M104.14,62.08h-1v-13h1Z"/><path class="cls-1" d="M108,62.08h-1v-13h1Z"/><path class="cls-1" d="M114.33,62.25a4,4,0,0,1-2.11-.58,3.92,3.92,0,0,1-1.47-1.61,5,5,0,0,1-.52-2.31v-.37a5.39,5.39,0,0,1,.51-2.38,4.08,4.08,0,0,1,1.43-1.67,3.53,3.53,0,0,1,2-.61,3.31,3.31,0,0,1,2.65,1.14,4.62,4.62,0,0,1,1,3.11v.57h-6.54v.2a3.84,3.84,0,0,0,.89,2.6,2.85,2.85,0,0,0,2.25,1,3.3,3.3,0,0,0,1.44-.3,3.18,3.18,0,0,0,1.13-.95l.64.48A3.7,3.7,0,0,1,114.33,62.25Zm-.19-8.64a2.54,2.54,0,0,0-1.93.84,3.88,3.88,0,0,0-1,2.25h5.5v-.11a3.37,3.37,0,0,0-.75-2.15A2.34,2.34,0,0,0,114.15,53.6Z"/><path class="cls-1" d="M120.72,52.91l0,1.57A3.64,3.64,0,0,1,122,53.18a3.34,3.34,0,0,1,1.7-.44,2.75,2.75,0,0,1,2.19.83,3.75,3.75,0,0,1,.73,2.49v6h-1v-6a2.8,2.8,0,0,0-.52-1.83,2,2,0,0,0-1.64-.6,2.56,2.56,0,0,0-1.67.59,3.45,3.45,0,0,0-1.07,1.59v6.28h-1V52.91Z"/><path class="cls-1" d="M129.23,50.26a.68.68,0,0,1,.19-.48.67.67,0,0,1,.51-.2.68.68,0,0,1,.51.2.67.67,0,0,1,.19.48.66.66,0,0,1-.19.48.69.69,0,0,1-.51.19.65.65,0,0,1-.7-.67Zm1.2,11.82h-1V52.91h1Z"/><path class="cls-1" d="M136.57,61.39a2.68,2.68,0,0,0,1.78-.6,2.11,2.11,0,0,0,.78-1.55h1a2.87,2.87,0,0,1-.53,1.53,3.3,3.3,0,0,1-1.28,1.08,3.87,3.87,0,0,1-1.72.39A3.54,3.54,0,0,1,133.7,61a5.07,5.07,0,0,1-1.06-3.37v-.31a5.73,5.73,0,0,1,.47-2.4,3.66,3.66,0,0,1,1.36-1.61,3.76,3.76,0,0,1,2.07-.57,3.54,3.54,0,0,1,2.49.9,3.28,3.28,0,0,1,1,2.36h-1a2.45,2.45,0,0,0-2.56-2.4,2.53,2.53,0,0,0-2.13,1,4.49,4.49,0,0,0-.76,2.78v.3a4.39,4.39,0,0,0,.76,2.74A2.55,2.55,0,0,0,136.57,61.39Z"/><path class="cls-1" d="M82,79.75V67.41h3.45a5.37,5.37,0,0,1,2.72.69,4.77,4.77,0,0,1,1.88,2A6.23,6.23,0,0,1,90.71,73v1.14A6.24,6.24,0,0,1,90,77.08a4.76,4.76,0,0,1-1.89,2,5.53,5.53,0,0,1-2.79.69Zm1-11.46V78.87h2.34a4,4,0,0,0,3.13-1.29,5,5,0,0,0,1.18-3.5V73a4.88,4.88,0,0,0-1.16-3.41,4,4,0,0,0-3.06-1.29Z"/><path class="cls-1" d="M98.91,79.75a4.8,4.8,0,0,1-.2-1.28,3.53,3.53,0,0,1-1.36,1.07,4.17,4.17,0,0,1-1.75.38,3.07,3.07,0,0,1-2.14-.74,2.4,2.4,0,0,1-.82-1.86,2.45,2.45,0,0,1,1.11-2.12,5.35,5.35,0,0,1,3.11-.78H98.7v-1a2,2,0,0,0-.61-1.55,2.51,2.51,0,0,0-1.77-.56,2.76,2.76,0,0,0-1.75.54,1.61,1.61,0,0,0-.7,1.31h-1a2.36,2.36,0,0,1,1-1.89,3.92,3.92,0,0,1,2.5-.8,3.57,3.57,0,0,1,2.42.77,2.75,2.75,0,0,1,.91,2.14v4.34a5.38,5.38,0,0,0,.28,2v.1ZM95.72,79a3.4,3.4,0,0,0,1.82-.49,2.9,2.9,0,0,0,1.17-1.31v-2H96.89a4.54,4.54,0,0,0-2.37.56,1.66,1.66,0,0,0-.86,1.48,1.64,1.64,0,0,0,.57,1.28A2.15,2.15,0,0,0,95.72,79Z"/><path class="cls-1" d="M104,68.23v2.35h1.9v.83H104v6.12a1.92,1.92,0,0,0,.28,1.14,1.07,1.07,0,0,0,.92.37A6.2,6.2,0,0,0,106,79l0,.82a3.31,3.31,0,0,1-1.09.14,1.81,1.81,0,0,1-1.52-.61,2.85,2.85,0,0,1-.47-1.78V71.41h-1.69v-.83H103V68.23Z"/><path class="cls-1" d="M113.78,79.75a4.78,4.78,0,0,1-.2-1.28,3.54,3.54,0,0,1-1.36,1.07,4.17,4.17,0,0,1-1.75.38,3.07,3.07,0,0,1-2.14-.74,2.4,2.4,0,0,1-.82-1.86,2.45,2.45,0,0,1,1.11-2.12,5.35,5.35,0,0,1,3.11-.78h1.84v-1a2,2,0,0,0-.61-1.55,2.51,2.51,0,0,0-1.77-.56,2.76,2.76,0,0,0-1.75.54,1.61,1.61,0,0,0-.7,1.31h-1a2.36,2.36,0,0,1,1-1.89,3.92,3.92,0,0,1,2.5-.8,3.57,3.57,0,0,1,2.42.77,2.75,2.75,0,0,1,.91,2.14v4.34a5.38,5.38,0,0,0,.28,2v.1ZM110.6,79a3.4,3.4,0,0,0,1.82-.49,2.89,2.89,0,0,0,1.17-1.31v-2h-1.81a4.54,4.54,0,0,0-2.37.56,1.66,1.66,0,0,0-.86,1.48,1.64,1.64,0,0,0,.57,1.28A2.16,2.16,0,0,0,110.6,79Z"/><path class="cls-1" d="M89,94.38a2,2,0,0,0-.72-1.62,7.62,7.62,0,0,0-2.64-1.14,9.23,9.23,0,0,1-2.8-1.17,2.85,2.85,0,0,1-.09-4.66,4.79,4.79,0,0,1,3-.89,4.94,4.94,0,0,1,2.2.47,3.6,3.6,0,0,1,1.5,1.32,3.47,3.47,0,0,1,.53,1.89H88.9a2.59,2.59,0,0,0-.86-2,3.37,3.37,0,0,0-2.32-.77,3.66,3.66,0,0,0-2.25.63,2,2,0,0,0-.84,1.65,1.87,1.87,0,0,0,.75,1.54,7,7,0,0,0,2.42,1,11.4,11.4,0,0,1,2.52.94,3.59,3.59,0,0,1,1.29,1.17,2.91,2.91,0,0,1,.43,1.6,2.79,2.79,0,0,1-1.17,2.34,5,5,0,0,1-3.07.88,6,6,0,0,1-2.39-.47,3.66,3.66,0,0,1-1.65-1.31,3.37,3.37,0,0,1-.56-1.92h1a2.46,2.46,0,0,0,1,2.06,4.12,4.12,0,0,0,2.59.75,3.84,3.84,0,0,0,2.31-.64A2,2,0,0,0,89,94.38Z"/><path class="cls-1" d="M95.59,97.59A4,4,0,0,1,93.47,97,3.93,3.93,0,0,1,92,95.4a5,5,0,0,1-.53-2.31v-.36A5.4,5.4,0,0,1,92,90.35a4.08,4.08,0,0,1,1.43-1.67,3.53,3.53,0,0,1,2-.61A3.31,3.31,0,0,1,98,89.22a4.63,4.63,0,0,1,1,3.11v.57H92.48v.19a3.84,3.84,0,0,0,.89,2.6,2.84,2.84,0,0,0,2.25,1,3.31,3.31,0,0,0,1.44-.3,3.19,3.19,0,0,0,1.13-.95l.64.48A3.7,3.7,0,0,1,95.59,97.59Zm-.19-8.65a2.54,2.54,0,0,0-1.93.84,3.88,3.88,0,0,0-1,2.25H98v-.11a3.36,3.36,0,0,0-.75-2.15A2.34,2.34,0,0,0,95.4,88.94Z"/><path class="cls-1" d="M105.24,89.11a3.84,3.84,0,0,0-.69-.06,2.48,2.48,0,0,0-1.61.53,2.9,2.9,0,0,0-.94,1.54v6.3h-1V88.25h1l0,1.46a2.7,2.7,0,0,1,2.58-1.63,1.67,1.67,0,0,1,.67.11Z"/><path class="cls-1" d="M109.85,96l2.79-7.77h1l-3.42,9.17h-.82L106,88.25h1Z"/><path class="cls-1" d="M115.28,85.6a.68.68,0,0,1,.19-.48.66.66,0,0,1,.51-.2.68.68,0,0,1,.51.2.67.67,0,0,1,.19.48.66.66,0,0,1-.19.48.69.69,0,0,1-.51.19.67.67,0,0,1-.51-.19A.66.66,0,0,1,115.28,85.6Zm1.2,11.82h-1V88.25h1Z"/><path class="cls-1" d="M122.62,96.73a2.68,2.68,0,0,0,1.78-.6,2.1,2.1,0,0,0,.78-1.55h1a2.87,2.87,0,0,1-.53,1.53,3.29,3.29,0,0,1-1.28,1.08,3.87,3.87,0,0,1-1.72.39,3.54,3.54,0,0,1-2.86-1.25A5.07,5.07,0,0,1,118.71,93v-.3a5.72,5.72,0,0,1,.47-2.4,3.65,3.65,0,0,1,1.36-1.61,3.75,3.75,0,0,1,2.07-.57,3.54,3.54,0,0,1,2.49.9,3.28,3.28,0,0,1,1,2.36h-1a2.45,2.45,0,0,0-2.56-2.4,2.53,2.53,0,0,0-2.13,1,4.49,4.49,0,0,0-.76,2.78V93a4.39,4.39,0,0,0,.76,2.74A2.55,2.55,0,0,0,122.62,96.73Z"/><path class="cls-1" d="M131.73,97.59a4,4,0,0,1-2.11-.58,3.93,3.93,0,0,1-1.47-1.61,5,5,0,0,1-.53-2.31v-.36a5.39,5.39,0,0,1,.51-2.38,4.08,4.08,0,0,1,1.43-1.67,3.53,3.53,0,0,1,2-.61,3.31,3.31,0,0,1,2.65,1.14,4.63,4.63,0,0,1,1,3.11v.57h-6.54v.19a3.84,3.84,0,0,0,.89,2.6,2.84,2.84,0,0,0,2.25,1,3.31,3.31,0,0,0,1.44-.3,3.2,3.2,0,0,0,1.13-.95L135,96A3.7,3.7,0,0,1,131.73,97.59Zm-.19-8.65a2.54,2.54,0,0,0-1.93.84,3.88,3.88,0,0,0-1,2.25h5.5v-.11a3.37,3.37,0,0,0-.75-2.15A2.34,2.34,0,0,0,131.54,88.94Z"/><polygon class="cls-2" points="30.84 46.84 19.62 35.57 15.93 39.55 27.01 50.68 30.84 46.84"/><path class="cls-2" d="M14.31,30.25,4.62,20.52A2.71,2.71,0,0,0,.79,24.35l9.86,9.9Z"/><path class="cls-3" d="M30,13.13,17.65.79a2.71,2.71,0,0,0-3.83,3.83l12.5,12.5Z"/><path class="cls-2" d="M32.49,56.18l1.34,1.35,9.7,9.61L46.72,64a10.5,10.5,0,0,0-2.33-3.56l-8.06-8.09Z"/><path class="cls-3" d="M31.71,22.52l2.12,2.12,9.71,9.61,3.19-3.15a10.5,10.5,0,0,0-2.33-3.56l-9-9Z"/><path class="cls-1" d="M34.72,85.16h0l.83-.83,8.87-8.87c.15-.15.29-.31.43-.47l.13-.15.28-.34.14-.18.27-.38.1-.14c.11-.16.21-.33.3-.49l.13-.24.15-.29.13-.27.13-.29a10.69,10.69,0,0,0,.53-7h0l-2.37,2.35-1.22,1.21h0l-9.68,9.59-2,2h0L31,81.2h0l-3.75,3.75h0l-.83.83-12.6,12.6a2.71,2.71,0,0,0,3.83,3.83L30.13,89.76h0l.83-.83h0Z"/><path class="cls-4" d="M46.69,98,35.52,86l-3.77,3.77L42.9,101.86A2.71,2.71,0,0,0,46.71,98Z"/><path class="cls-1" d="M14.31,39.59h0l.79-.86,3.69-4L33.5,18.86l1.07-1.15L46.68,4.63A2.71,2.71,0,0,0,42.86.79L28.78,16.17,27.15,18l-.79.86L16,30.12l-.87,1-3.67,4-.79.86L3.2,44.12c-.22.22-.44.46-.64.69l0,.06c-.2.24-.38.48-.56.73l0,.06c-.18.25-.34.52-.49.78l0,0a10.66,10.66,0,0,0-1,2.29h0c-.07.23-.13.47-.18.71v0c-.05.24-.1.49-.13.73v0c0,.22-.05.44-.07.67v.16c0,.23,0,.46,0,.7a7.23,7.23,0,0,0,0,.73c0,.18,0,.37.08.55l0,.24c0,.13.06.26.09.39l.05.21c.05.2.11.4.18.61l3.59-3.88Z"/><path class="cls-4" d="M14.37,63.37l-10.29-11L.94,55.74a11,11,0,0,0,2.21,3.13L10.71,67Z"/><polygon class="cls-4" points="30.22 80.35 19.67 69.04 15.98 72.74 26.48 84.09 30.22 80.35"/><path class="cls-1" d="M18.87,68.19h0l.82-.83,3.81-3.82,8.16-8.19,3.84-3.85.82-.83,8.08-8.11c.15-.15.29-.31.43-.46L45,42l.28-.34.14-.18.27-.38.1-.14c.11-.16.21-.33.3-.49l.13-.24.15-.29.13-.27.13-.29a10.69,10.69,0,0,0,.53-7h0l-2.37,2.35-1.22,1.21h0l-9.68,9.59-1.36,1.37h0l-.82.83h0l-3.83,3.85h0L25,54.35l-9,9-.82.83L11.5,67.9h0l-.82.83h0L.79,78.65a2.71,2.71,0,1,0,3.83,3.83l9.74-9.77h0l.82-.83h0Z"/><path class="cls-1" d="M115.91,32.26a7.06,7.06,0,0,0,2.79.58H129a1.81,1.81,0,0,0,0-3.62h-1.89l-11.24,0Z"/><path class="cls-1" d="M115.94,19.18l13.1,0a1.81,1.81,0,1,0,0-3.62h-13.1s0,0,0,.05v3.53Z"/><path class="cls-1" d="M142,15.34v-.09l0-11.67a1.68,1.68,0,0,0-.57-1.27A1.74,1.74,0,0,0,140,1.88H140a1.7,1.7,0,0,0-1.5,1.68c0,.46,0,1.09,0,1.73,0,1.48,0,2.14-.05,2.45h0v.59c0,.3,0,.53,0,.73l0,8.72,0,7.76c0,.21,0,.43,0,.69,0,.09,0,.19,0,.27l0,.25a6.84,6.84,0,0,0,.16.69l0,.14c.06.19.12.37.19.55a7.17,7.17,0,0,0,3.07,3.64h0V28.37h0l0-8.13c0-.07,0-.14,0-.21V15.55C142,15.48,142,15.41,142,15.34Z"/><path class="cls-1" d="M130.86,3.78A1.81,1.81,0,0,0,129,2H118.7a7,7,0,0,0-2.79.58v3L129,5.59A1.82,1.82,0,0,0,130.86,3.78Z"/><path class="cls-1" d="M103.78,15a7,7,0,0,0,.57-2.79V3.91a1.81,1.81,0,0,0-1.8-1.81h-.1a1.81,1.81,0,0,0-1.73,1.8V5.81l0,9.18Z"/><path class="cls-1" d="M80.11,19.32a8,8,0,0,1,3.53-3.51V3.87a1.66,1.66,0,0,0-.53-1.25,1.77,1.77,0,0,0-1.28-.52,1.81,1.81,0,0,0-1.35.52A1.69,1.69,0,0,0,80,3.87V19.5l.08-.18Z"/><path class="cls-1" d="M155.39,29.12H154l-11.24,0v3a7.05,7.05,0,0,0,2.79.58h9.87a1.81,1.81,0,0,0,0-3.63Z"/><path class="cls-1" d="M100.7,18.43a7.22,7.22,0,0,0,1.49-1.12h0l.29-.31,0,0,.25-.3.05-.07.21-.29.07-.09.21-.34,0-.06h0l-16.2,0c-.21,0-.42,0-.63,0l-.16,0a7,7,0,0,0-1.22.25l-.15,0a7.18,7.18,0,0,0-2.84,1.72h0l-.28.29,0,0-.25.3-.05.06-.21.29-.06.09q-.13.19-.25.4h3.43l12.71,0c.21,0,.43,0,.64,0l.15,0,.62-.09h0c.21,0,.41-.1.62-.16l.13,0a7.28,7.28,0,0,0,1.39-.6Z"/><path class="cls-1" d="M80.56,20.12A7,7,0,0,0,80,22.92v8.29a1.8,1.8,0,0,0,.53,1.28,1.82,1.82,0,0,0,.53.36,2,2,0,0,0,.73.12,1.84,1.84,0,0,0,1.31-.53h0a1.82,1.82,0,0,0,.23-.27,1.79,1.79,0,0,0,.29-1V29.31l0-9.18Z"/><path class="cls-1" d="M104.29,15.8a8,8,0,0,1-3.58,3.53V31.16a1.79,1.79,0,0,0,.5,1.31,1.73,1.73,0,0,0,1.32.51,1.84,1.84,0,0,0,1.31-.53h0a1.68,1.68,0,0,0,.55-1.29V15.62l-.09.18Z"/><path class="cls-1" d="M115.14,15.59c0-.05,0-.1,0-.16V10.65l0-7.71-.33.22h0l0,0a7.1,7.1,0,0,0-1.68,1.57h0a7.2,7.2,0,0,0-1,1.83c-.07.18-.13.36-.19.55l0,.14c-.06.23-.12.45-.16.69l0,.25,0,.27c0,.27,0,.49,0,.7l0,8.72v7.76c0,.21,0,.43,0,.69l0,.27,0,.25a7,7,0,0,0,.16.69l0,.14c.05.18.12.37.19.54a7.23,7.23,0,0,0,1,1.83h0a7.09,7.09,0,0,0,1.68,1.57h0l.36.23v-2.6h0v-.8l0-8.13c0-.07,0-.14,0-.21V20h0v-.8h0V15.65S115.14,15.61,115.14,15.59Z"/><path class="cls-1" d="M165.25,2.1a1.81,1.81,0,0,0-1.35.52,1.69,1.69,0,0,0-.52,1.25V31.16a1.79,1.79,0,0,0,.5,1.31,1.73,1.73,0,0,0,1.32.51,1.84,1.84,0,0,0,1.31-.53h0a1.68,1.68,0,0,0,.55-1.29V3.87a1.66,1.66,0,0,0-.53-1.25A1.77,1.77,0,0,0,165.25,2.1Z"/><path class="cls-1" d="M187.9,17.53l.5-.67,8.94-12a1.69,1.69,0,0,0,.34-1.31,1.81,1.81,0,0,0-.77-1.22A1.75,1.75,0,0,0,195.83,2l-.25,0a1.66,1.66,0,0,0-1.18.68l-9,12-2.12,2.84h0l-.5.67h0l-8.94,12a1.68,1.68,0,0,0-.34,1.36,1.84,1.84,0,0,0,.73,1.21,1.73,1.73,0,0,0,1.36.38,1.79,1.79,0,0,0,1.18-.74l8.29-11.11h0l.5-.67h0Z"/><path class="cls-1" d="M188.4,18.2l-2.29,3.07,8.3,11.11a1.78,1.78,0,0,0,1.18.74,1.73,1.73,0,0,0,1.36-.38,1.84,1.84,0,0,0,.73-1.21h0a1.68,1.68,0,0,0-.33-1.36Z"/><path class="cls-1" d="M185.1,13.78,176.8,2.67A1.66,1.66,0,0,0,175.62,2l-.25,0a1.75,1.75,0,0,0-1.08.37,1.81,1.81,0,0,0-.76,1.22,1.69,1.69,0,0,0,.34,1.31l8.94,12Z"/></g></g></g></g></g></svg>