<svg xmlns="http://www.w3.org/2000/svg" viewBox="0 0 50.01 50"><defs><style>.cls-1{fill:#fa6085;}</style></defs><title>Humanities</title><g id="Layer_2" data-name="Layer 2"><g id="front"><ellipse class="cls-1" cx="13.06" cy="9.44" rx="3.67" ry="3.83"/><path class="cls-1" d="M15,13.39l-1.89,1.44-1.89-1.44c-.56.11-5,1.22-5.39,4.67a1,1,0,0,0,.39.89c.83.56,2.89,1.67,6.89,1.67h0c4,0,6.06-1.11,6.89-1.67a1,1,0,0,0,.39-.89C19.94,14.61,15.5,13.5,15,13.39Z"/><ellipse class="cls-1" cx="38.67" cy="24.11" rx="2.72" ry="2.89"/><path class="cls-1" d="M40.11,27.11l-1.39,1.11-1.39-1.11c-.39.11-3.72.94-4.06,3.5a.64.64,0,0,0,.28.67c.61.44,2.17,1.22,5.17,1.22h0a9.32,9.32,0,0,0,5.17-1.22.64.64,0,0,0,.28-.67C43.83,28,40.5,27.17,40.11,27.11Z"/><ellipse class="cls-1" cx="15.78" cy="36.56" rx="2.72" ry="2.89"/><path class="cls-1" d="M17.22,39.5l-1.39,1.11L14.44,39.5c-.39.11-3.72.94-4.06,3.5a.64.64,0,0,0,.28.67c.61.44,2.17,1.22,5.17,1.22h0A9.32,9.32,0,0,0,21,43.67a.64.64,0,0,0,.28-.67C20.94,40.44,17.61,39.61,17.22,39.5Z"/><path class="cls-1" d="M49.89,42.83a3.56,3.56,0,0,0-4.17-2.56l-1.83-4.61A10,10,0,1,0,30.28,21.72l-5.33-2.89a13.13,13.13,0,0,0,1.33-5.72,12.42,12.42,0,0,0-.67-4.06l5.61-1.5a3.67,3.67,0,1,0-.5-1.5L25,7.61A13.11,13.11,0,1,0,13.11,26.22h.33l.44,4A10,10,0,1,0,25.83,40a9.79,9.79,0,0,0-.94-4.22l5.44-3.06a9.9,9.9,0,0,0,12.11,3.67l1.78,4.56a3.58,3.58,0,1,0,5.67,1.89Zm-48-29.72A11.22,11.22,0,1,1,13.11,24.33,11.23,11.23,0,0,1,1.89,13.11Zm13.94,35A8.11,8.11,0,1,1,23.94,40,8.12,8.12,0,0,1,15.83,48.11Zm8.28-13.67A10,10,0,0,0,15.83,30h-.39L15,26.11a13.3,13.3,0,0,0,9.17-5.89l5.39,2.89a9.8,9.8,0,0,0,.06,8.28Zm6.44-7.28a8.11,8.11,0,1,1,8.11,8.11A8.12,8.12,0,0,1,30.56,27.17Z"/></g></g></svg>