<svg xmlns="http://www.w3.org/2000/svg" viewBox="0 0 159.02 102.55"><defs><style>.cls-1{fill:#724ef8;}.cls-2{fill:#262626;}.cls-3{fill:#bfbfbf;}</style></defs><title>Lab-logo</title><g id="Layer_2" data-name="Layer 2"><g id="back"><path class="cls-1" d="M96.8,52.72H95.36l-14.82.06c.09.16.19.31.29.46l.09.12.24.32.09.12.28.32.07.08a7.28,7.28,0,0,0,3.57,2l.11,0,.24,0,.2,0,.21,0,.26,0H96.8a1.84,1.84,0,0,0,1.31-.54h0a1.85,1.85,0,0,0-1.31-3.16Z"/><path class="cls-1" d="M83.08,43.63c0-.07,0-.14,0-.22V38.87c0-.07,0-.14,0-.22v-.09l0-11.81a1.72,1.72,0,0,0-.59-1.3A1.79,1.79,0,0,0,81.07,25H81a1.74,1.74,0,0,0-1.53,1.72c0,.46,0,1.1,0,1.75,0,1.5,0,2.17-.05,2.48h0v.6c0,.31,0,.53,0,.74l0,8.83,0,7.85c0,.21,0,.44,0,.7l0,.28,0,.25A7.38,7.38,0,0,0,80.07,52h3Z"/><path class="cls-1" d="M140.23,28.55l8.61,0a3.71,3.71,0,0,1,3,1.4,5.31,5.31,0,0,1,1.29,3.52c0,.18,0,.35,0,.53s0,.3-.06.45a5.92,5.92,0,0,1-.47,1.57A5.09,5.09,0,0,1,151.07,38l-.1.07h.1a8,8,0,0,1,4.31,1.25,9.2,9.2,0,0,0,.79-1.24,9.35,9.35,0,0,0,1.07-4c0-.16,0-.31,0-.47a9.17,9.17,0,0,0-1.08-4.41A8.41,8.41,0,0,0,153.26,26a7.3,7.3,0,0,0-4-1.15h-6.22c-.22,0-.45,0-.67,0h-.14c-.22,0-.44.06-.66.1h0c-.22,0-.44.11-.65.17l-.08,0c-.22.07-.44.15-.65.24h0a7.34,7.34,0,0,0-.83.42l-.33.21h0l0,0h0l-.43.32-.12.1-.3.26-.13.12-.27.28-.11.12c-.12.13-.24.27-.35.42h0l-.28.4q-.13.2-.25.41h3.45Z"/><path class="cls-1" d="M139.45,38.06l0-8.71h-3.05a7.45,7.45,0,0,0-.49,1.66l0,.26,0,.27c0,.27,0,.5,0,.71v5.82Z"/><path class="cls-1" d="M157.48,42.48l-.07-.11q-.24-.35-.51-.67l-.08-.09a8.35,8.35,0,0,0-.59-.63h0a8.15,8.15,0,0,0-.7-.59h0c-.16-.12-.33-.24-.5-.35l-.16-.1h0a7.49,7.49,0,0,0-.89-.47h0l-.45-.18h0l-.44-.14-.07,0-.41-.1-.13,0-.35-.06-.24,0-.26,0-.51,0H135.79v3.72h14.88a3.4,3.4,0,0,1,1.26.24,3.72,3.72,0,0,1,.46.22h0a3.89,3.89,0,0,1,.43.28,5.08,5.08,0,0,1,1.52,1.94,6,6,0,0,1,.56,2.55,5.31,5.31,0,0,1-1.29,3.52,3.71,3.71,0,0,1-3,1.4l-11.17,0h-2.65a7.33,7.33,0,0,0,3.44,3.06h0c.21.09.43.17.65.24l.08,0c.21.07.43.13.65.17h0c.22,0,.44.08.66.1h.14c.22,0,.44,0,.67,0h8a7.3,7.3,0,0,0,4-1.15,8.42,8.42,0,0,0,2.91-3.16A9.18,9.18,0,0,0,159,47.7a9.43,9.43,0,0,0-1.08-4.46C157.79,43,157.64,42.73,157.48,42.48Z"/><path class="cls-1" d="M139.46,43.63c0-.07,0-.14,0-.22v0h-3.68V49c0,.21,0,.44,0,.71,0,.09,0,.19,0,.28l0,.26a7.44,7.44,0,0,0,.51,1.7h3Z"/><path class="cls-1" d="M116.75,30.66h0l1.86-4.48a2,2,0,0,0-1.71-.93h0A2,2,0,0,0,115,26.53l-11.5,27.83a4.69,4.69,0,0,0-.08.62,1.46,1.46,0,0,0,.39,1.09,1.82,1.82,0,0,0,2.12.09,1.61,1.61,0,0,0,.6-.85v0h0l.18-.43,2.61-6.34,1.74-4.16Z"/><path class="cls-1" d="M128.22,49.18h-3.73L127,55.24a2.34,2.34,0,0,0,.72.91,1.51,1.51,0,0,0,.93.31,1.67,1.67,0,0,0,1.66-1.7,2.35,2.35,0,0,0-.12-.74Z"/><polygon class="cls-1" points="127.9 48.38 126.48 44.97 126.47 44.97 122.73 44.97 121.86 44.97 111.71 44.97 110.31 48.38 123.3 48.38 124.15 48.38 127.89 48.38 127.9 48.38"/><polygon class="cls-1" points="122.39 44.17 126.13 44.17 119.06 27.19 117.19 31.71 122.39 44.17"/><path class="cls-2" d="M86.38,79.64h-.64V76H81.41v3.63h-.64V72.07h.64v3.4h4.32v-3.4h.64Z"/><path class="cls-2" d="M90.34,79.74a2.44,2.44,0,0,1-1.3-.35,2.41,2.41,0,0,1-.9-1A3.07,3.07,0,0,1,87.82,77v-.22a3.31,3.31,0,0,1,.31-1.46,2.5,2.5,0,0,1,.88-1,2.16,2.16,0,0,1,1.22-.37,2,2,0,0,1,1.62.7,2.84,2.84,0,0,1,.6,1.91v.35h-4V77A2.35,2.35,0,0,0,89,78.58a1.74,1.74,0,0,0,1.38.64,2,2,0,0,0,.88-.18,2,2,0,0,0,.69-.58l.39.3A2.27,2.27,0,0,1,90.34,79.74Zm-.11-5.3A1.55,1.55,0,0,0,89,75a2.38,2.38,0,0,0-.58,1.38h3.37v-.07A2.06,2.06,0,0,0,91.37,75,1.43,1.43,0,0,0,90.22,74.44Z"/><path class="cls-2" d="M94.36,79.64h-.62v-8h.62Z"/><path class="cls-2" d="M96.74,79.64h-.62v-8h.62Z"/><path class="cls-2" d="M100.61,79.74a2.44,2.44,0,0,1-1.3-.35,2.41,2.41,0,0,1-.9-1A3.07,3.07,0,0,1,98.09,77v-.22a3.31,3.31,0,0,1,.31-1.46,2.5,2.5,0,0,1,.88-1,2.16,2.16,0,0,1,1.22-.37,2,2,0,0,1,1.62.7,2.84,2.84,0,0,1,.6,1.91v.35h-4V77a2.35,2.35,0,0,0,.55,1.59,1.74,1.74,0,0,0,1.38.64,2,2,0,0,0,.88-.18,2,2,0,0,0,.69-.58l.39.3A2.27,2.27,0,0,1,100.61,79.74Zm-.11-5.3a1.55,1.55,0,0,0-1.18.51,2.38,2.38,0,0,0-.58,1.38h3.37v-.07a2.06,2.06,0,0,0-.46-1.32A1.43,1.43,0,0,0,100.5,74.44Z"/><path class="cls-2" d="M104.52,74l0,1a2.23,2.23,0,0,1,.79-.79,2.05,2.05,0,0,1,1-.27,1.69,1.69,0,0,1,1.35.51,2.3,2.3,0,0,1,.45,1.53v3.69h-.62v-3.7a1.72,1.72,0,0,0-.32-1.12,1.25,1.25,0,0,0-1-.37,1.57,1.57,0,0,0-1,.36,2.12,2.12,0,0,0-.66,1v3.85h-.62V74Z"/><path class="cls-2" d="M109.74,72.39a.42.42,0,0,1,.11-.3.41.41,0,0,1,.31-.12.42.42,0,0,1,.31.12.41.41,0,0,1,.12.3.4.4,0,0,1-.12.29.42.42,0,0,1-.31.12.41.41,0,0,1-.31-.12A.41.41,0,0,1,109.74,72.39Zm.73,7.25h-.62V74h.62Z"/><path class="cls-2" d="M114.24,79.22a1.64,1.64,0,0,0,1.09-.37,1.29,1.29,0,0,0,.48-.95h.6a1.76,1.76,0,0,1-.32.94,2,2,0,0,1-.79.66,2.37,2.37,0,0,1-1.05.24,2.17,2.17,0,0,1-1.75-.77,3.11,3.11,0,0,1-.65-2.07v-.19a3.51,3.51,0,0,1,.29-1.47,2.24,2.24,0,0,1,.83-1,2.3,2.3,0,0,1,1.27-.35,2.17,2.17,0,0,1,1.53.55,2,2,0,0,1,.64,1.45h-.6a1.51,1.51,0,0,0-1.57-1.47,1.55,1.55,0,0,0-1.31.61,2.75,2.75,0,0,0-.47,1.71v.18a2.69,2.69,0,0,0,.47,1.68A1.56,1.56,0,0,0,114.24,79.22Z"/><path class="cls-2" d="M80.77,90.48V82.91h2.12a3.29,3.29,0,0,1,1.67.42,2.93,2.93,0,0,1,1.15,1.21,3.82,3.82,0,0,1,.41,1.8V87a3.82,3.82,0,0,1-.41,1.8A2.92,2.92,0,0,1,84.56,90a3.39,3.39,0,0,1-1.71.43Zm.64-7v6.49h1.43a2.47,2.47,0,0,0,1.92-.79A3.07,3.07,0,0,0,85.49,87v-.67a3,3,0,0,0-.71-2.09,2.43,2.43,0,0,0-1.88-.79Z"/><path class="cls-2" d="M91.15,90.48a2.93,2.93,0,0,1-.12-.78,2.17,2.17,0,0,1-.83.66,2.55,2.55,0,0,1-1.07.23,1.89,1.89,0,0,1-1.31-.45,1.47,1.47,0,0,1-.5-1.14,1.51,1.51,0,0,1,.68-1.3,3.28,3.28,0,0,1,1.91-.48H91v-.64a1.23,1.23,0,0,0-.37-.95,1.54,1.54,0,0,0-1.08-.35,1.7,1.7,0,0,0-1.08.33,1,1,0,0,0-.43.8h-.62a1.45,1.45,0,0,1,.62-1.16,2.4,2.4,0,0,1,1.53-.49,2.19,2.19,0,0,1,1.48.47,1.69,1.69,0,0,1,.56,1.31v2.66a3.3,3.3,0,0,0,.17,1.22v.06Zm-2-.45a2.09,2.09,0,0,0,1.12-.3,1.77,1.77,0,0,0,.71-.81V87.68H89.91a2.79,2.79,0,0,0-1.46.34,1,1,0,0,0-.53.91,1,1,0,0,0,.35.78A1.32,1.32,0,0,0,89.19,90Z"/><path class="cls-2" d="M94.27,83.41v1.44h1.16v.51H94.27v3.75a1.18,1.18,0,0,0,.17.7A.65.65,0,0,0,95,90a3.85,3.85,0,0,0,.5-.05l0,.51a2,2,0,0,1-.67.09,1.11,1.11,0,0,1-.93-.37,1.75,1.75,0,0,1-.29-1.09V85.36h-1v-.51h1V83.41Z"/><path class="cls-2" d="M100.27,90.48a2.93,2.93,0,0,1-.12-.78,2.17,2.17,0,0,1-.83.66,2.55,2.55,0,0,1-1.07.23,1.89,1.89,0,0,1-1.31-.45,1.47,1.47,0,0,1-.5-1.14,1.51,1.51,0,0,1,.68-1.3A3.28,3.28,0,0,1,99,87.21h1.13v-.64a1.23,1.23,0,0,0-.37-.95,1.54,1.54,0,0,0-1.08-.35,1.7,1.7,0,0,0-1.08.33,1,1,0,0,0-.43.8h-.62a1.45,1.45,0,0,1,.62-1.16,2.4,2.4,0,0,1,1.53-.49,2.19,2.19,0,0,1,1.48.47,1.69,1.69,0,0,1,.56,1.31v2.66a3.3,3.3,0,0,0,.17,1.22v.06Zm-2-.45a2.09,2.09,0,0,0,1.12-.3,1.77,1.77,0,0,0,.71-.81V87.68H99a2.79,2.79,0,0,0-1.46.34,1,1,0,0,0-.53.91,1,1,0,0,0,.35.78A1.32,1.32,0,0,0,98.32,90Z"/><path class="cls-2" d="M85.06,99.45a1.23,1.23,0,0,0-.44-1,4.67,4.67,0,0,0-1.62-.7A5.67,5.67,0,0,1,81.28,97a1.75,1.75,0,0,1-.05-2.86,2.94,2.94,0,0,1,1.83-.54,3,3,0,0,1,1.35.29,2.21,2.21,0,0,1,.92.81,2.13,2.13,0,0,1,.33,1.16H85a1.59,1.59,0,0,0-.53-1.25,2.06,2.06,0,0,0-1.42-.47,2.24,2.24,0,0,0-1.38.39,1.21,1.21,0,0,0-.51,1,1.15,1.15,0,0,0,.46.94,4.29,4.29,0,0,0,1.48.64,7,7,0,0,1,1.54.58,2.2,2.2,0,0,1,.79.71,1.79,1.79,0,0,1,.27,1,1.71,1.71,0,0,1-.71,1.43,3,3,0,0,1-1.88.54,3.69,3.69,0,0,1-1.47-.29,2.24,2.24,0,0,1-1-.8,2.06,2.06,0,0,1-.35-1.18h.64a1.51,1.51,0,0,0,.6,1.26,2.53,2.53,0,0,0,1.59.46,2.36,2.36,0,0,0,1.42-.39A1.22,1.22,0,0,0,85.06,99.45Z"/><path class="cls-2" d="M89.11,101.42a2.44,2.44,0,0,1-1.3-.35,2.41,2.41,0,0,1-.9-1,3.07,3.07,0,0,1-.32-1.42v-.22A3.31,3.31,0,0,1,86.9,97a2.5,2.5,0,0,1,.88-1A2.16,2.16,0,0,1,89,95.58a2,2,0,0,1,1.62.7,2.84,2.84,0,0,1,.6,1.91v.35h-4v.12a2.35,2.35,0,0,0,.55,1.59,1.74,1.74,0,0,0,1.38.64,2,2,0,0,0,.88-.18,2,2,0,0,0,.69-.58l.39.3A2.27,2.27,0,0,1,89.11,101.42ZM89,96.11a1.55,1.55,0,0,0-1.18.51A2.38,2.38,0,0,0,87.23,98H90.6v-.07a2.06,2.06,0,0,0-.46-1.32A1.43,1.43,0,0,0,89,96.11Z"/><path class="cls-2" d="M95,96.22a2.33,2.33,0,0,0-.42,0,1.52,1.52,0,0,0-1,.32,1.78,1.78,0,0,0-.57.94v3.86h-.62V95.69H93v.89a1.65,1.65,0,0,1,1.59-1,1,1,0,0,1,.41.07Z"/><path class="cls-2" d="M97.86,100.45l1.71-4.77h.64l-2.1,5.62h-.5l-2.11-5.62h.64Z"/><path class="cls-2" d="M101.19,94.06a.42.42,0,0,1,.11-.3.41.41,0,0,1,.31-.12.42.42,0,0,1,.31.12.41.41,0,0,1,.12.3.4.4,0,0,1-.12.29.42.42,0,0,1-.31.12.41.41,0,0,1-.31-.12A.41.41,0,0,1,101.19,94.06Zm.73,7.25h-.62V95.69h.62Z"/><path class="cls-2" d="M105.69,100.89a1.64,1.64,0,0,0,1.09-.37,1.29,1.29,0,0,0,.48-.95h.6a1.76,1.76,0,0,1-.32.94,2,2,0,0,1-.79.66,2.37,2.37,0,0,1-1.05.24,2.17,2.17,0,0,1-1.75-.77,3.11,3.11,0,0,1-.65-2.07v-.19a3.51,3.51,0,0,1,.29-1.47,2.24,2.24,0,0,1,.83-1,2.3,2.3,0,0,1,1.27-.35,2.17,2.17,0,0,1,1.53.55,2,2,0,0,1,.64,1.45h-.6a1.51,1.51,0,0,0-1.57-1.47,1.55,1.55,0,0,0-1.31.61,2.75,2.75,0,0,0-.47,1.71v.18a2.69,2.69,0,0,0,.47,1.68A1.56,1.56,0,0,0,105.69,100.89Z"/><path class="cls-2" d="M111.28,101.42a2.44,2.44,0,0,1-1.3-.35,2.41,2.41,0,0,1-.9-1,3.07,3.07,0,0,1-.32-1.42v-.22a3.31,3.31,0,0,1,.31-1.46,2.5,2.5,0,0,1,.88-1,2.16,2.16,0,0,1,1.22-.37,2,2,0,0,1,1.62.7,2.84,2.84,0,0,1,.6,1.91v.35h-4v.12a2.35,2.35,0,0,0,.55,1.59,1.74,1.74,0,0,0,1.38.64,2,2,0,0,0,.88-.18,2,2,0,0,0,.69-.58l.39.3A2.27,2.27,0,0,1,111.28,101.42Zm-.11-5.3a1.55,1.55,0,0,0-1.18.51,2.38,2.38,0,0,0-.58,1.38h3.37v-.07a2.06,2.06,0,0,0-.46-1.32A1.43,1.43,0,0,0,111.16,96.11Z"/><path class="cls-2" d="M88.53.31a.4.4,0,0,1,.11.29V8.93a.43.43,0,0,1-.13.29.4.4,0,0,1-.29.11.4.4,0,0,1-.4-.4V5h-5.3V8.93a.44.44,0,0,1-.13.29.39.39,0,0,1-.29.12.38.38,0,0,1-.4-.4V.6a.39.39,0,0,1,.12-.29.42.42,0,0,1,.3-.11.39.39,0,0,1,.29.12.39.39,0,0,1,.12.29V4.28h5.3V.6a.38.38,0,0,1,.12-.29A.41.41,0,0,1,88.24.2.4.4,0,0,1,88.53.31Z"/><path class="cls-2" d="M98.39,8.68A.39.39,0,0,1,98.5,9a.36.36,0,0,1-.11.27.39.39,0,0,1-.28.1H93.32a.38.38,0,0,1-.39-.39V.59A.38.38,0,0,1,93.32.2h4.79a.38.38,0,0,1,.39.39.36.36,0,0,1-.11.27.39.39,0,0,1-.28.1H93.75V4.25h3.77a.38.38,0,0,1,.39.39.36.36,0,0,1-.11.27.39.39,0,0,1-.28.1H93.75V8.57h4.36A.37.37,0,0,1,98.39,8.68Z"/><path class="cls-2" d="M107.51,8.67a.36.36,0,0,1,.11.27.38.38,0,0,1-.39.39h-4.66a.38.38,0,0,1-.39-.39V.59a.37.37,0,0,1,.12-.28.42.42,0,0,1,.3-.11.4.4,0,0,1,.29.11.37.37,0,0,1,.12.28v8h4.23A.39.39,0,0,1,107.51,8.67Z"/><path class="cls-2" d="M111.64,9.22a.39.39,0,0,1-.29.12.38.38,0,0,1-.4-.4V.6a.39.39,0,0,1,.12-.29.42.42,0,0,1,.3-.11.39.39,0,0,1,.29.12.39.39,0,0,1,.12.29V8.93A.44.44,0,0,1,111.64,9.22Z"/><path class="cls-2" d="M122.19,8.75a.43.43,0,0,1,.09.24.38.38,0,0,1-.12.29.41.41,0,0,1-.28.11.36.36,0,0,1-.31-.17l-2.82-3.83-2.81,3.81a.36.36,0,0,1-.31.18.32.32,0,0,1-.25-.11.36.36,0,0,1-.1-.24.45.45,0,0,1,.09-.26l2.94-4-3-4a.35.35,0,0,1-.09-.24.37.37,0,0,1,.12-.27.4.4,0,0,1,.28-.12.41.41,0,0,1,.33.16l2.81,3.83L121.59.33a.41.41,0,0,1,.31-.17.39.39,0,0,1,.27.1.31.31,0,0,1,.11.24.49.49,0,0,1-.09.25l-2.94,4Z"/><polygon class="cls-1" points="30.71 46.63 19.53 35.42 15.86 39.38 26.89 50.46 30.71 46.63"/><path class="cls-1" d="M14.25,30.12,4.6,20.43A2.7,2.7,0,0,0,.79,24.25L10.6,34.1Z"/><path class="cls-3" d="M29.85,13.07,17.57.79A2.7,2.7,0,0,0,13.76,4.6L26.21,17.05Z"/><path class="cls-1" d="M32.35,55.94l1.34,1.34,9.66,9.57,3.17-3.14a10.46,10.46,0,0,0-2.32-3.54l-8-8.05Z"/><path class="cls-3" d="M31.57,22.42l2.11,2.11,9.66,9.57L46.52,31a10.46,10.46,0,0,0-2.32-3.54l-9-9Z"/><path class="cls-1" d="M34.57,84.79h0l.82-.82,8.83-8.83c.15-.15.29-.31.43-.46l.13-.15.28-.34L45.2,74l.27-.38.1-.14c.11-.16.21-.33.3-.49l.13-.24.15-.29.13-.27.13-.28a10.64,10.64,0,0,0,.53-7h0l-2.36,2.33-1.22,1.21h0L33.71,78l-2,2h0l-.82.82h0l-3.73,3.73h0l-.82.82L13.78,97.95a2.7,2.7,0,0,0,3.81,3.81L30,89.37h0l.82-.82h0Z"/><path class="cls-1" d="M46.49,97.56,35.36,85.64,31.61,89.4l11.11,12a2.7,2.7,0,0,0,3.79-3.84Z"/><path class="cls-1" d="M14.25,39.41h0l.79-.85,3.67-4L33.36,18.78l1.06-1.15,12.06-13A2.7,2.7,0,0,0,42.67.79l-14,15.31L27,17.88l-.78.86L15.94,30l-.87,1-3.65,4-.79.86L3.18,43.92c-.22.22-.43.45-.64.69l0,.05c-.2.23-.38.48-.55.72l0,.06q-.26.38-.49.78l0,0a10.62,10.62,0,0,0-1,2.28h0q-.1.35-.18.71v0c-.05.24-.1.48-.13.73v0c0,.22-.05.44-.07.66v.16c0,.23,0,.46,0,.7a7.11,7.11,0,0,0,0,.73c0,.18,0,.37.08.55l0,.24q0,.19.09.39l.05.21c.05.2.11.4.18.61l3.58-3.86Z"/><path class="cls-1" d="M14.31,63.09l-10.24-11L.94,55.5a11,11,0,0,0,2.2,3.11l7.52,8.14Z"/><polygon class="cls-1" points="30.09 80 19.58 68.74 15.91 72.42 26.36 83.73 30.09 80"/><path class="cls-3" d="M18.79,67.89h0l.82-.82,3.79-3.8,8.13-8.15,3.82-3.83.82-.82,8-8.07c.15-.15.29-.31.43-.46l.13-.15.28-.34.14-.18.27-.38.1-.14c.11-.16.21-.33.3-.49L46,40l.15-.29.13-.27.13-.28a10.64,10.64,0,0,0,.53-7h0l-2.36,2.33-1.22,1.21h0l-9.64,9.54-1.35,1.36h0l-.82.82h0l-3.82,3.83h0L24.9,54.11l-9,9-.82.82L11.45,67.6h0l-.82.82h0L.79,78.3A2.7,2.7,0,1,0,4.6,82.12l9.7-9.73h0l.82-.82h0Z"/></g></g></svg>