<svg xmlns="http://www.w3.org/2000/svg" viewBox="0 0 26.9 55"><defs><style>.cls-1{fill:#fa6085;}</style></defs><title>Medical</title><g id="Layer_2" data-name="Layer 2"><g id="front"><path class="cls-1" d="M13.52,8.15A4.08,4.08,0,1,1,17.6,4.08,4.08,4.08,0,0,1,13.52,8.15Zm0-6.29a2.21,2.21,0,1,0,2.21,2.21A2.21,2.21,0,0,0,13.52,1.87Z"/><path class="cls-1" d="M13.52,55a.93.93,0,0,1-.93-.93V7.22a.93.93,0,1,1,1.87,0V54.07A.93.93,0,0,1,13.52,55Z"/><path class="cls-1" d="M13.52,54.07"/><path class="cls-1" d="M23,10.24a.93.93,0,0,1,0-1.87H26a.93.93,0,0,1,0,1.87H23Z"/><path class="cls-1" d="M24.84,14.44a.93.93,0,0,1-.46-.13l-2.54-1.46a.93.93,0,1,1,.93-1.62l2.54,1.46a.93.93,0,0,1-.47,1.74Z"/><path class="cls-1" d="M21.76,17.52a.93.93,0,0,1-.81-.47l-1.47-2.54a.93.93,0,0,1,1.61-.94l1.47,2.54a.93.93,0,0,1-.81,1.4Z"/><path class="cls-1" d="M17.56,18.65a.93.93,0,0,1-.93-.93V14.78a.93.93,0,0,1,.93-.93h0a.93.93,0,0,1,.93.93v2.93a.93.93,0,0,1-.93.93Z"/><path class="cls-1" d="M17.56,18.65a.93.93,0,0,1-.93-.93V9.3a.93.93,0,0,1,.93-.93H26a.93.93,0,0,1,.93.93A9.36,9.36,0,0,1,17.56,18.65Zm.93-8.41v6.49A7.5,7.5,0,0,0,25,10.23Z"/><path class="cls-1" d="M3.87,10.24H.93a.93.93,0,0,1,0-1.87H3.87a.93.93,0,0,1,0,1.87Z"/><path class="cls-1" d="M2.06,14.44a.93.93,0,0,1-.47-1.74l2.54-1.46a.93.93,0,1,1,.93,1.62L2.52,14.31A.93.93,0,0,1,2.06,14.44Z"/><path class="cls-1" d="M5.14,17.52a.93.93,0,0,1-.81-1.4L5.8,13.58a.93.93,0,0,1,1.61.94L5.95,17.05A.93.93,0,0,1,5.14,17.52Z"/><path class="cls-1" d="M9.34,18.65h0a.93.93,0,0,1-.93-.93V14.78a.93.93,0,0,1,.93-.93h0a.93.93,0,0,1,.93.93v2.93A.93.93,0,0,1,9.34,18.65Z"/><path class="cls-1" d="M9.34,18.65A9.36,9.36,0,0,1,0,9.3a.93.93,0,0,1,.93-.93H9.34a.93.93,0,0,1,.93.93v8.41A.93.93,0,0,1,9.34,18.65ZM1.92,10.23a7.5,7.5,0,0,0,6.49,6.49V10.23Z"/><path class="cls-1" d="M15.76,47.77a.93.93,0,0,1-.5-.14,12.56,12.56,0,0,0-2.54-1c-.63-.2-1.29-.41-1.87-.65a.93.93,0,0,1,.71-1.73c.52.21,1.14.41,1.74.6a13.67,13.67,0,0,1,3,1.2.93.93,0,0,1-.5,1.72Z"/><path class="cls-1" d="M15.77,38.25a.92.92,0,0,1-.3-.05,32.77,32.77,0,0,0-3.18-.82L11,37.09a.93.93,0,0,1,.43-1.82l1.25.28a33.89,33.89,0,0,1,3.37.88.93.93,0,0,1-.3,1.82Z"/><path class="cls-1" d="M15.82,28.71l-.18,0c-1-.2-2.16-.38-3.28-.56l-1.24-.2a.93.93,0,0,1,.3-1.84l1.23.2c1.13.18,2.3.37,3.34.57a.93.93,0,0,1-.18,1.85Z"/><path class="cls-1" d="M10.43,53.62a.93.93,0,0,1-.93-.93,2.48,2.48,0,0,1,1.28-2.08.93.93,0,0,1,1,1.55c-.45.3-.45.47-.45.53A.93.93,0,0,1,10.43,53.62Z"/><path class="cls-1" d="M15.76,50.29a.93.93,0,0,1-.52-1.71c.44-.3.44-.47.44-.53s-.16-.27-.42-.43a.93.93,0,1,1,1-1.58,2.37,2.37,0,0,1,1.28,2,2.48,2.48,0,0,1-1.27,2.08A.93.93,0,0,1,15.76,50.29Z"/><path class="cls-1" d="M11.2,46a.94.94,0,0,1-.35-.07c-.65-.27-2.38-1-2.38-2.55s1.72-2.2,2.37-2.45a.93.93,0,0,1,.68,1.74c-1.09.42-1.18.71-1.18.71s0,.34,1.22.83A.93.93,0,0,1,11.2,46Z"/><path class="cls-1" d="M15.75,41.34a.93.93,0,0,1-.33-1.81c1-.37,1.22-.64,1.27-.72a3.08,3.08,0,0,0-1.22-.62.93.93,0,1,1,.61-1.76c.68.23,2.49.86,2.49,2.35s-1.81,2.24-2.49,2.5A.92.92,0,0,1,15.75,41.34Z"/><path class="cls-1" d="M11.24,37.11l-.22,0c-2.43-.58-4.61-1.23-4.61-2.94S8.69,31.87,11,31.37a.93.93,0,0,1,.39,1.83,9,9,0,0,0-3.07,1,8.41,8.41,0,0,0,3.11,1.09.93.93,0,0,1-.21,1.84Z"/><path class="cls-1" d="M15.79,32.32a.93.93,0,0,1-.19-1.85,10.46,10.46,0,0,0,3-.93,11,11,0,0,0-3-.86A.93.93,0,1,1,16,26.86c2.34.46,4.63,1,4.63,2.66S18.33,31.81,16,32.3Z"/><path class="cls-1" d="M11.27,27.94h-.15c-4.09-.67-6.77-1.25-6.77-3,0-1.61,2.17-2.22,6.73-2.91a.93.93,0,1,1,.28,1.85,21,21,0,0,0-4.9,1.09,25.11,25.11,0,0,0,5,1.17.93.93,0,0,1-.15,1.85Z"/><path class="cls-1" d="M15.76,23.18a.93.93,0,0,1-.14-1.86c3.69-.55,4.89-1,5.21-1.25a.93.93,0,0,1,1.85.18c0,1.61-2.19,2.22-6.79,2.92Z"/></g></g></svg>