<svg xmlns="http://www.w3.org/2000/svg" viewBox="0 0 38.69 45.97"><defs><style>.cls-1{fill:#fa6085;}</style></defs><title>Opendata</title><g id="Layer_2" data-name="Layer 2"><g id="front"><path class="cls-1" d="M26.83,23.49H9.43V10.8a5.43,5.43,0,0,1,10.86,0v.94h5.37V10.8a10.8,10.8,0,0,0-21.6,0V23.49H2.44A2.44,2.44,0,0,0,0,25.93v17.6A2.44,2.44,0,0,0,2.44,46H26.83a2.44,2.44,0,0,0,2.44-2.44V25.93A2.44,2.44,0,0,0,26.83,23.49ZM17.6,41.27H12l.8-6.42a3.29,3.29,0,1,1,4,0ZM29,13.56a1.51,1.51,0,0,1,0-2.13l2.81-2.8a1.51,1.51,0,1,1,2.13,2.13l-2.81,2.81a1.51,1.51,0,0,1-2.13,0Zm9.73,2.14a1.51,1.51,0,0,1-1.51,1.51h-4a1.51,1.51,0,1,1,0-3h4A1.51,1.51,0,0,1,38.69,15.7ZM33.9,21.17a1.51,1.51,0,0,1-2.13,2.13L29,20.49a1.51,1.51,0,0,1,2.13-2.13Z"/></g></g></svg>