<svg xmlns="http://www.w3.org/2000/svg" viewBox="0 0 53.79 55"><defs><style>.cls-1{fill:#fa6085;}</style></defs><title>Physical</title><g id="Layer_2" data-name="Layer 2"><g id="front"><path class="cls-1" d="M53.79,32.78a4.16,4.16,0,0,0-6.23-3.52c-.54-.57-1.11-1.14-1.76-1.76,5.71-5.35,8.35-10.57,6.59-13.75s-7.52-3.52-15.15-1.26C35.42,4.75,32.22,0,28.58,0a5.75,5.75,0,0,0-4.33,2.47,4.15,4.15,0,0,0-3.67,7.41c-.26.82-.48,1.69-.7,2.59C12.42,10.28,6.6,10.57,4.72,13.75S5.4,22,11.2,27.5C5.4,33,2.9,38.07,4.72,41.25c.88,1.47,2.55,2.32,4.86,2.59a4.15,4.15,0,0,0,8.15-.76c.7-.17,1.42-.36,2.16-.58,1.81,7.58,5,12.5,8.66,12.5s6.84-4.73,8.66-12.49A30.31,30.31,0,0,0,45.72,44c3.24,0,5.57-.88,6.63-2.74.81-1.4.74-3.2-.07-5.22A4.16,4.16,0,0,0,53.79,32.78ZM15.87,43.47a2.39,2.39,0,0,1-4.68-.71,2.54,2.54,0,0,1,.05-.52,2.39,2.39,0,0,1,4.5-.48,2.27,2.27,0,0,1,.23,1A2.41,2.41,0,0,1,15.87,43.47Zm3.64-2.64c-.7.21-1.36.4-2,.55a4.15,4.15,0,0,0-8,.75,4.17,4.17,0,0,1-3.23-1.76C4.9,38,7.44,33.48,12.52,28.71c1.16,1,2.44,2.05,3.82,3.07l1-1.41c-1.28-1-2.47-1.91-3.52-2.86,1.07-.88,2.22-1.87,3.46-2.79l-1.06-1.41q-2,1.51-3.72,3C7.48,21.53,4.9,17,6.25,14.63s6.32-2.54,13.21-.44a68,68,0,0,0-1.2,13.31A68,68,0,0,0,19.5,40.81ZM25.67,3.45a4,4,0,0,1,2.9-1.66c2.75,0,5.39,4.4,7,11.27q-2.08.7-4.3,1.65l.69,1.62q2-.88,4-1.53c.25,1.24.46,2.55.63,3.92l1.76-.22c-.18-1.49-.41-2.9-.68-4.24,6.67-2,11.89-1.94,13.21.41s-1,6.75-6.26,11.69a67.2,67.2,0,0,0-10.9-7.75A67.63,67.63,0,0,0,21.57,13c.21-.88.43-1.76.68-2.56h.48a4.16,4.16,0,0,0,3-7Zm13,20.47c1.67,1.2,3.2,2.4,4.55,3.58-1.36,1.18-2.88,2.38-4.55,3.58.06-1.18.09-2.38.09-3.58S38.78,25.1,38.72,23.92ZM20.29,6.37A2.4,2.4,0,0,1,22.68,4h.45a2.42,2.42,0,0,1,1.45.88A2.4,2.4,0,0,1,22.78,8.7h-.1a2.37,2.37,0,0,1-1.52-.55A2.41,2.41,0,0,1,20.29,6.37Zm.88,8.4a56.94,56.94,0,0,1,5.37,2.17q-1.59.82-3.14,1.72c-1,.59-2.05,1.22-3,1.85.19-2.09.47-4,.81-5.76ZM20,27.5c0-1.67.05-3.28.15-4.83,1.32-.88,2.69-1.76,4.1-2.54s2.84-1.58,4.26-2.28c1.38.69,2.81,1.44,4.25,2.28s2.82,1.68,4.1,2.54c.1,1.59.15,3.21.15,4.83s-.05,3.24-.15,4.83c-1.29.88-2.64,1.7-4.1,2.54s-2.87,1.59-4.25,2.32c-1.42-.7-2.84-1.46-4.26-2.28s-2.78-1.67-4.1-2.54C20.08,30.78,20,29.17,20,27.5Zm.33,7c1,.63,2,1.26,3,1.86s2.1,1.18,3.14,1.72a56.94,56.94,0,0,1-5.38,2.15Q20.65,37.62,20.35,34.54Zm30.48,5.83c-1.36,2.36-6.56,2.42-13.21.41.31-1.53.55-3.16.76-4.89l-1.76-.2c-.18,1.59-.41,3.1-.7,4.53a43.26,43.26,0,0,1-4.4-1.76l-.7,1.62c1.65.72,3.24,1.34,4.76,1.86-1.66,6.82-4.31,11.29-7,11.29S23.17,49,21.49,42a66.15,66.15,0,0,0,12.18-5.57,67.2,67.2,0,0,0,10.89-7.72c.62.57,1.19,1.14,1.76,1.7a4.11,4.11,0,0,0-.85,2.41,4.17,4.17,0,0,0,4.16,4.16,3.9,3.9,0,0,0,1.12-.16,4.16,4.16,0,0,1,.07,3.58Zm.69-6a2.39,2.39,0,0,1-1.48.83h-.35a2.4,2.4,0,0,1-2.44-2.35s0,0,0-.05a2.32,2.32,0,0,1,.27-1.1,2.38,2.38,0,0,1,1.28-1.14,2.25,2.25,0,0,1,.88-.16A2.4,2.4,0,0,1,52,32.78,2.37,2.37,0,0,1,51.51,34.36Z"/><path class="cls-1" d="M41.48,9A3.52,3.52,0,1,0,38,5.49,3.52,3.52,0,0,0,41.48,9Zm0-5.28a1.76,1.76,0,1,1-1.76,1.76A1.76,1.76,0,0,1,41.48,3.72Z"/><path class="cls-1" d="M7,27.5A3.52,3.52,0,1,0,3.48,31,3.57,3.57,0,0,0,7,27.5ZM3.48,29.26A1.76,1.76,0,1,1,5.28,27.5a1.76,1.76,0,0,1-1.81,1.76Z"/></g></g></svg>