<svg xmlns="http://www.w3.org/2000/svg" viewBox="0 0 49.44 50.02"><defs><style>.cls-1{fill:#724ef8;}</style></defs><title>python3</title><g id="Layer_2" data-name="Layer 2"><g id="front"><path class="cls-1" d="M18.91,24.12H30.35A7.09,7.09,0,0,0,31.53,24a6,6,0,0,0,5.05-6c0-3.8,0-7.59,0-11.39a4.83,4.83,0,0,0-.18-1.41A6.55,6.55,0,0,0,31.25.65a31.22,31.22,0,0,0-9-.56A23.3,23.3,0,0,0,16.5,1c-2.52.8-3.61,2.19-3.71,4.83-.06,1.63,0,3.25,0,4.88,0,.42.13.52.53.52,3.47,0,6.94,0,10.41,0,1,0,1,0,1,1,0,.43-.14.51-.53.5-2.71,0-5.43,0-8.14,0h0c-2.61,0-5.23,0-7.84,0A7.38,7.38,0,0,0,1,18.32,22.67,22.67,0,0,0,.59,30,13.64,13.64,0,0,0,2,34a5.78,5.78,0,0,0,5.21,3c1.18,0,2.37,0,3.55,0,.38,0,.47-.12.46-.48,0-1.58,0-3.16,0-4.73a7.53,7.53,0,0,1,7.65-7.67ZM18,8.22a2.24,2.24,0,0,1-2.21-2.29A2.23,2.23,0,1,1,20.2,6,2.26,2.26,0,0,1,18,8.22ZM30.64,41.09a3.42,3.42,0,0,1-3.31-2.59H25.64c-1,0-.95,0-1-1,0-.41.1-.53.52-.53h2V29a3.42,3.42,0,0,1,3-3.39c-3.76-.06-7.52,0-11.28,0a6,6,0,0,0-6.18,6.07c0,3.78,0,7.56,0,11.34a5.05,5.05,0,0,0,1.65,3.77,8.7,8.7,0,0,0,3,1.85,19.79,19.79,0,0,0,11.71.85,13.9,13.9,0,0,0,5-2,5.29,5.29,0,0,0,2.43-4.68c0-.58,0-1.15,0-1.73Zm.73,5a2.26,2.26,0,0,1-2.21-2.3,2.23,2.23,0,1,1,4.46,0A2.26,2.26,0,0,1,31.37,46.08Zm18-19.45a18.79,18.79,0,0,1-2.32,7.72A4.84,4.84,0,0,1,42.7,37V29a3.43,3.43,0,0,0-3.43-3.43H31.21A7.72,7.72,0,0,0,38,19.12a9.16,9.16,0,0,0,.07-1.28c0-1.55,0-3.09,0-4.63,0-.19-.09-.45.28-.45,1.61,0,3.22,0,4.83,0a4.94,4.94,0,0,1,4,2.64,14.13,14.13,0,0,1,1.52,4.25A23.4,23.4,0,0,1,49.39,26.64ZM37.85,34.1a2.44,2.44,0,0,1,.43,1.45,2.7,2.7,0,0,1-.93,2.15,4.08,4.08,0,0,1-4.81,0,2.55,2.55,0,0,1-.92-2.06H33.3a1.4,1.4,0,0,0,.45,1.08,1.69,1.69,0,0,0,1.2.41,1.74,1.74,0,0,0,1.23-.41,1.55,1.55,0,0,0,.45-1.2,1.57,1.57,0,0,0-.47-1.22,2,2,0,0,0-1.39-.43h-1V32.57h1a1.82,1.82,0,0,0,1.22-.4A1.43,1.43,0,0,0,36.46,31a1.56,1.56,0,0,0-.38-1.11,1.51,1.51,0,0,0-1.15-.4,1.6,1.6,0,0,0-1.11.39,1.3,1.3,0,0,0-.43,1H31.72a2.54,2.54,0,0,1,.41-1.41,2.75,2.75,0,0,1,1.14-1,3.74,3.74,0,0,1,1.65-.36,3.45,3.45,0,0,1,2.36.75,2.65,2.65,0,0,1,.86,2.1,2.14,2.14,0,0,1-.43,1.27,2.7,2.7,0,0,1-1.11.9A2.46,2.46,0,0,1,37.85,34.1Z"/></g></g></svg>