<svg xmlns="http://www.w3.org/2000/svg" viewBox="0 0 48.01 48.57"><defs><style>.cls-1{fill:#724ef8;}</style></defs><title>Python</title><g id="Layer_2" data-name="Layer 2"><g id="front"><path class="cls-1" d="M33,35.92c-2.84,0-5.68,0-8.52,0-.4,0-.51.12-.5.51,0,1,0,1,.94,1,3.37,0,6.73,0,10.1,0,.46,0,.55.14.54.56,0,1.21,0,2.43,0,3.64a5.14,5.14,0,0,1-2.36,4.55,13.49,13.49,0,0,1-4.9,1.95,19.21,19.21,0,0,1-11.37-.82A8.45,8.45,0,0,1,14,45.44a4.91,4.91,0,0,1-1.61-3.66c0-3.67,0-7.34,0-11a5.86,5.86,0,0,1,6-5.9c3.69,0,7.37-.05,11.06,0a7.48,7.48,0,0,0,7.45-6.33A8.91,8.91,0,0,0,37,17.32c0-1.5,0-3,0-4.5,0-.19-.09-.44.27-.43,1.56,0,3.13,0,4.69,0A4.79,4.79,0,0,1,45.85,15a13.73,13.73,0,0,1,1.47,4.12A22.7,22.7,0,0,1,48,25.86a18.24,18.24,0,0,1-2.25,7.5,4.74,4.74,0,0,1-4.49,2.56C38.47,35.91,35.73,35.92,33,35.92Zm-4.67,6.6a2.17,2.17,0,1,0,4.33,0,2.17,2.17,0,1,0-4.33,0Z"/><path class="cls-1" d="M15.56,12.39c2.63,0,5.27,0,7.9,0,.38,0,.53-.07.52-.49,0-1,0-1-1-1-3.37,0-6.73,0-10.1,0-.39,0-.53-.09-.52-.5,0-1.58,0-3.16,0-4.74C12.52,3.13,13.58,1.79,16,1a22.64,22.64,0,0,1,5.6-.92,30.3,30.3,0,0,1,8.71.54,6.36,6.36,0,0,1,5,4.5,4.68,4.68,0,0,1,.17,1.37c0,3.69,0,7.37,0,11.06a5.78,5.78,0,0,1-4.91,5.79,6.81,6.81,0,0,1-1.14.06H18.36a7.31,7.31,0,0,0-7.43,7.45c0,1.53,0,3.06,0,4.6,0,.35-.08.48-.45.47-1.15,0-2.3,0-3.45,0A5.61,5.61,0,0,1,2,33,13.26,13.26,0,0,1,.57,29.08a22,22,0,0,1,.36-11.3,7.17,7.17,0,0,1,7-5.39c2.54,0,5.08,0,7.61,0Zm1.9-8.82a2.17,2.17,0,0,0-2.18,2.18,2.17,2.17,0,1,0,2.18-2.18Z"/></g></g></svg>