<svg xmlns="http://www.w3.org/2000/svg" viewBox="0 0 56.19 45.09"><defs><style>.cls-1{fill:#724ef8;}</style></defs><title>R</title><g id="Layer_2" data-name="Layer 2"><g id="front"><path class="cls-1" d="M51.42,45.09H42.57l-3.35-8.6c-.54-1.4-.55-1.44-2-1.08a47.17,47.17,0,0,1-6.51,1.07c-.47,0-.49.25-.49.62,0,2.66,0,5.33,0,8h-8c0-2.69,0-5.38,0-8.07,0-.58-.24-.72-.71-.77a30.92,30.92,0,0,1-7.36-1.71,23.29,23.29,0,0,1-11.44-8A13.47,13.47,0,0,1,.23,15.86a15.24,15.24,0,0,1,5.5-9s5.66-5.28,16-6.55C23.89,0,26.19,0,26.19,0c.5,0,2.23,0,4.53.17a46.13,46.13,0,0,1,5.09.71,33.45,33.45,0,0,1,13.93,6,16,16,0,0,1,6.09,8.55,8.38,8.38,0,0,0,.36,1.68v2.39s-.12.09-.12.14a12.5,12.5,0,0,1-2.75,6.46,21.4,21.4,0,0,1-6.73,5.61c-.4.22-.54.38-.31.89.64,1.4,1.18,2.85,1.77,4.27ZM41.34,25.92a5.57,5.57,0,0,1,1.57.77,7,7,0,0,1,2,2.66c.16.36.32.47.72.26a18.94,18.94,0,0,0,6.28-4.83,10.25,10.25,0,0,0,2.47-6.37,9.62,9.62,0,0,0-1.81-5.69,18.5,18.5,0,0,0-8.79-6.53A34.32,34.32,0,0,0,28.55,4.06a37.35,37.35,0,0,0-8.73,1.6C15.62,7,11.73,8.87,8.71,12.21A9,9,0,0,0,6.1,18.15c0,3,1.52,5.3,3.61,7.28a22.32,22.32,0,0,0,6.38,4.1,32.32,32.32,0,0,0,6.13,2v-.9q0-11.79,0-23.57c0-.59.1-.79.75-.78q5.51.05,11,0a31.27,31.27,0,0,1,7.58.72C44.29,7.72,46.63,9,48,11.6a11.15,11.15,0,0,1,.91,7.1A8.76,8.76,0,0,1,41.34,25.92ZM30.22,17.65q0,2.38,0,4.76c0,.26,0,.5.37.51a26.16,26.16,0,0,0,6.22-.44,4.76,4.76,0,0,0,4-5.35,4.26,4.26,0,0,0-3.36-4.05,26,26,0,0,0-6.83-.55c-.41,0-.37.25-.37.5Q30.22,15.34,30.22,17.65Zm7.26,14.49a4,4,0,0,0-3-2.78,15.13,15.13,0,0,0-3.94-.27c-.37,0-.34.22-.34.46,0,.79,0,1.59,0,2.38,0,.57.17.71.7.71A36.12,36.12,0,0,0,37.48,32.14Z"/></g></g></svg>