<svg xmlns="http://www.w3.org/2000/svg" viewBox="0 0 45.98 46"><defs><style>.cls-1{fill:#fa6085;}</style></defs><title>Services</title><g id="Layer_2" data-name="Layer 2"><g id="front"><path class="cls-1" d="M34.29,0a12.48,12.48,0,0,0-9.64,3.63,12.39,12.39,0,0,0-3.12,12L1.82,35.34a6.25,6.25,0,1,0,8.84,8.84L30.38,24.46A12.35,12.35,0,0,0,45.26,8.31a1.56,1.56,0,0,0-2.57-.59l-4.4,4.4a3.13,3.13,0,0,1-4.43-4.41l4.4-4.4A1.56,1.56,0,0,0,37.67.73,12.49,12.49,0,0,0,34.29,0ZM34,3.15,31.65,5.5a6.25,6.25,0,1,0,8.84,8.84L42.83,12a9.33,9.33,0,0,1-12.47,9.31,1.56,1.56,0,0,0-1.63.36L8.45,42A3.13,3.13,0,1,1,4,37.54L24.3,17.27a1.56,1.56,0,0,0,.38-1.63A9.34,9.34,0,0,1,34,3.15Z"/></g></g></svg>