<svg xmlns="http://www.w3.org/2000/svg" viewBox="0 0 32 48"><defs><style>.cls-1{fill:#fa6085;}</style></defs><title>themes</title><g id="Layer_2" data-name="Layer 2"><g id="front"><path class="cls-1" d="M16,48a5,5,0,0,1-5-5V31a1,1,0,0,1,2,0V43a3,3,0,0,0,6,0V31a1,1,0,0,1,2,0V43A5,5,0,0,1,16,48Z"/><path class="cls-1" d="M25,32H7a7,7,0,0,1-7-7V17a1,1,0,0,1,1-1H31a1,1,0,0,1,1,1v8A7,7,0,0,1,25,32ZM2,18v7a5,5,0,0,0,5,5H25a5,5,0,0,0,5-5V18Z"/><path class="cls-1" d="M29,18H3a1,1,0,0,1-1-1V5A5,5,0,0,1,7,0H19a1,1,0,0,1,1,.8l1,5.1L22,.8A1,1,0,0,1,23,0h2a5,5,0,0,1,5,5V17A1,1,0,0,1,29,18ZM4,16H28V5a3,3,0,0,0-3-3H23.82L22,11.2a1,1,0,0,1-2,0L18.18,2H7A3,3,0,0,0,4,5Z"/><path class="cls-1" d="M16,44a1,1,0,1,1,0-2h0a1,1,0,1,1,0,2Z"/></g></g></svg>