<svg xmlns="http://www.w3.org/2000/svg" viewBox="0 0 97.16 25.81"><defs><style>.cls-1{fill:#fff;}</style></defs><title>type_Helix_white</title><g id="Layer_2" data-name="Layer 2"><g id="front"><path class="cls-1" d="M29.66,25.08a5.82,5.82,0,0,0,2.31.48H40.5a1.5,1.5,0,0,0,0-3H38.94l-9.27,0Z"/><path class="cls-1" d="M29.69,14.28l10.81,0a1.5,1.5,0,0,0,0-3H29.69v3Z"/><path class="cls-1" d="M51.16,11.11V11l0-9.63a1.39,1.39,0,0,0-.47-1A1.44,1.44,0,0,0,49.54,0h0A1.4,1.4,0,0,0,48.26,1.4c0,.38,0,.9,0,1.42,0,1.22,0,1.76,0,2h0v.49c0,.25,0,.43,0,.61l0,7.2,0,6.4c0,.17,0,.35,0,.57l0,.22,0,.21a5.76,5.76,0,0,0,.13.57l0,.11c0,.15.1.3.16.45a5.91,5.91,0,0,0,2.53,3h0v-2.8h0l0-6.71c0-.06,0-.12,0-.17v-3.7C51.17,11.23,51.16,11.17,51.16,11.11Z"/><path class="cls-1" d="M42,1.58A1.5,1.5,0,0,0,40.5.08H32a5.82,5.82,0,0,0-2.3.48V3l10.84,0A1.5,1.5,0,0,0,42,1.58Z"/><path class="cls-1" d="M19.65,10.83a5.8,5.8,0,0,0,.47-2.31V1.68A1.5,1.5,0,0,0,18.64.19h-.08a1.49,1.49,0,0,0-1.42,1.49V3.25l0,7.58Z"/><path class="cls-1" d="M.12,14.4A6.58,6.58,0,0,1,3,11.5V1.65a1.37,1.37,0,0,0-.44-1A1.46,1.46,0,0,0,1.54.19,1.49,1.49,0,0,0,.43.61a1.4,1.4,0,0,0-.43,1v12.9l.07-.15Z"/><path class="cls-1" d="M62.25,22.49H61.08l-9.27,0V25a5.82,5.82,0,0,0,2.31.48h8.14a1.5,1.5,0,0,0,0-3Z"/><path class="cls-1" d="M17.11,13.66a6,6,0,0,0,1.23-.92h0l.24-.25,0,0,.21-.25,0-.05.18-.24.05-.07.18-.28,0-.05h0l-13.37,0-.52,0H5.3a5.81,5.81,0,0,0-1,.2l-.12,0a5.93,5.93,0,0,0-2.35,1.42h0l-.23.24,0,0-.2.24,0,.05L1.13,14l-.05.07-.21.33H3.7l10.49,0,.52,0h.13l.51-.08h0l.51-.13.1,0a6,6,0,0,0,1.15-.5Z"/><path class="cls-1" d="M.49,15.06A5.8,5.8,0,0,0,0,17.37v6.84A1.48,1.48,0,0,0,.9,25.57a1.69,1.69,0,0,0,.6.1,1.52,1.52,0,0,0,1.08-.43h0A1.52,1.52,0,0,0,2.77,25,1.48,1.48,0,0,0,3,24.21V22.65l0-7.58Z"/><path class="cls-1" d="M20.07,11.5a6.57,6.57,0,0,1-3,2.91v9.76a1.48,1.48,0,0,0,.41,1.08,1.43,1.43,0,0,0,1.09.42,1.52,1.52,0,0,0,1.08-.43h0a1.38,1.38,0,0,0,.45-1.06V11.35l-.07.15Z"/><path class="cls-1" d="M29,11.32s0-.09,0-.13V.88l-.27.18h0l0,0a5.86,5.86,0,0,0-1.38,1.29h0a6,6,0,0,0-.85,1.51c-.06.15-.11.3-.16.45l0,.11a5.81,5.81,0,0,0-.13.57l0,.21,0,.22c0,.22,0,.41,0,.58l0,7.2v6.4c0,.17,0,.35,0,.57l0,.22,0,.21a5.73,5.73,0,0,0,.13.57l0,.12c0,.15.1.3.16.45a6,6,0,0,0,.85,1.51h0a5.86,5.86,0,0,0,1.38,1.29h0l.29.19V22.61h0v-.66l0-6.71c0-.06,0-.12,0-.17v-.12h0v-.66h0V11.37S29,11.34,29,11.32Z"/><path class="cls-1" d="M70.38.19a1.49,1.49,0,0,0-1.11.43,1.4,1.4,0,0,0-.43,1V24.17a1.48,1.48,0,0,0,.41,1.08,1.43,1.43,0,0,0,1.09.42,1.52,1.52,0,0,0,1.08-.43h0a1.38,1.38,0,0,0,.45-1.06V1.65a1.37,1.37,0,0,0-.44-1A1.46,1.46,0,0,0,70.38.19Z"/><path class="cls-1" d="M89.07,12.92l.41-.55,7.38-9.88a1.4,1.4,0,0,0,.28-1.08,1.49,1.49,0,0,0-.63-1,1.44,1.44,0,0,0-.89-.31h-.21a1.37,1.37,0,0,0-1,.56L87,10.58l-1.75,2.34h0l-.41.55h0l-7.38,9.88a1.38,1.38,0,0,0-.28,1.12,1.52,1.52,0,0,0,.6,1,1.43,1.43,0,0,0,1.12.32,1.48,1.48,0,0,0,1-.61L86.76,16h0l.41-.55h0Z"/><path class="cls-1" d="M89.48,13.47,87.59,16l6.85,9.17a1.47,1.47,0,0,0,1,.61,1.43,1.43,0,0,0,1.12-.32,1.52,1.52,0,0,0,.6-1h0a1.38,1.38,0,0,0-.28-1.12Z"/><path class="cls-1" d="M86.76,9.83,79.91.66a1.37,1.37,0,0,0-1-.56h-.21a1.45,1.45,0,0,0-.89.31,1.49,1.49,0,0,0-.63,1,1.4,1.4,0,0,0,.28,1.08l7.38,9.88Z"/></g></g></svg>