<svg xmlns="http://www.w3.org/2000/svg" viewBox="0 0 90.31 26.82"><defs><style>.cls-1{fill:#fff;}</style></defs><title>type_Pubs_white</title><g id="Layer_2" data-name="Layer 2"><g id="front"><path class="cls-1" d="M52.28,3.21l7.16,0A3.08,3.08,0,0,1,61.95,4.4,4.41,4.41,0,0,1,63,7.33c0,.15,0,.29,0,.44s0,.25,0,.38a4.92,4.92,0,0,1-.39,1.3,4.23,4.23,0,0,1-1.27,1.61l-.08.06h.08a6.63,6.63,0,0,1,3.58,1,7.64,7.64,0,0,0,.66-1,7.77,7.77,0,0,0,.89-3.32c0-.13,0-.26,0-.39a7.63,7.63,0,0,0-.9-3.67,7,7,0,0,0-2.42-2.62,6.07,6.07,0,0,0-3.29-1H54.65l-.55,0H54l-.55.09h0l-.54.14-.07,0c-.18.06-.36.13-.54.2h0a6.1,6.1,0,0,0-.69.35l-.27.17h0l0,0h0l-.36.26-.1.08-.25.21-.11.1-.23.23-.09.1-.29.35h0l-.24.33-.21.34h2.87Z"/><path class="cls-1" d="M51.64,11.11l0-7.24H49.08a6.19,6.19,0,0,0-.41,1.38l0,.21,0,.23c0,.23,0,.42,0,.59v4.84Z"/><path class="cls-1" d="M41.05.54a1.27,1.27,0,0,0-1,.4A1.57,1.57,0,0,0,39.67,2V16.64a7.23,7.23,0,0,1-1,3.73,7,7,0,0,1-2.62,2.58,7.16,7.16,0,0,1-3.55.92,6.81,6.81,0,0,1-3.44-.92,6.91,6.91,0,0,1-2.56-2.58,7.33,7.33,0,0,1-1-3.72V2A1.4,1.4,0,0,0,25.12,1a1.45,1.45,0,0,0-1-.44A1.56,1.56,0,0,0,22.94,1,1.41,1.41,0,0,0,22.51,2V16.64a10.66,10.66,0,0,0,1.29,5.24,9.33,9.33,0,0,0,3.57,3.62,10.25,10.25,0,0,0,5.16,1.31,10.07,10.07,0,0,0,5.11-1.31,9.37,9.37,0,0,0,3.55-3.62,10.66,10.66,0,0,0,1.29-5.24V2A1.52,1.52,0,0,0,42.08.94,1.33,1.33,0,0,0,41.05.54Z"/><path class="cls-1" d="M14.32,1.3a6.64,6.64,0,0,0-3.61-1L6.09.22a6.06,6.06,0,0,0-5.23,3l1.28,0,.47,0,8.1,0a3.67,3.67,0,0,1,3,1.39,5.4,5.4,0,0,1,1.22,3.55,6,6,0,0,1-.55,2.54,5,5,0,0,1-1.51,1.92,3.46,3.46,0,0,1-2.13.74H0v2.85H10.71a6.55,6.55,0,0,0,3.6-1.07A7.72,7.72,0,0,0,17,12.24a8.57,8.57,0,0,0,1-4.05,8.34,8.34,0,0,0-1-4A7.66,7.66,0,0,0,14.32,1.3Z"/><path class="cls-1" d="M.12,16.9v7.92a1.49,1.49,0,1,0,3,0V16.9Z"/><path class="cls-1" d="M3.06,4H.59a5.79,5.79,0,0,0-.47,2.3v6.39h3Z"/><path class="cls-1" d="M86.55,13.36a23.57,23.57,0,0,0-4.8-1.5,14.53,14.53,0,0,1-4.6-1.73A3.55,3.55,0,0,1,75.5,7a3.55,3.55,0,0,1,1.65-3A7.35,7.35,0,0,1,81.4,2.85a9.59,9.59,0,0,1,3.48.71,8.29,8.29,0,0,1,2.86,1.75.94.94,0,0,0,.64.21,1.33,1.33,0,0,0,1-.43,1.38,1.38,0,0,0,.42-1A1.86,1.86,0,0,0,89,2.7a9.17,9.17,0,0,0-3.29-2A12.69,12.69,0,0,0,81.4,0a11.45,11.45,0,0,0-4.6.89,7.3,7.3,0,0,0-3.14,2.5,6.44,6.44,0,0,0-1.12,3.76,6.06,6.06,0,0,0,2,4.82,12.88,12.88,0,0,0,5.9,2.56,15.2,15.2,0,0,1,5.06,1.86,3.91,3.91,0,0,1,1.81,3.34A3.59,3.59,0,0,1,85.5,22.8,7.51,7.51,0,0,1,81.25,24a10,10,0,0,1-3.81-.69,11,11,0,0,1-3.25-2.14,1.25,1.25,0,0,0-.88-.33,1.37,1.37,0,0,0-1,.45,1.41,1.41,0,0,0-.44,1,1.7,1.7,0,0,0,.69,1.31,12.3,12.3,0,0,0,4,2.48,14,14,0,0,0,4.81.76,11.12,11.12,0,0,0,4.56-.93,7.88,7.88,0,0,0,3.24-2.56,6.25,6.25,0,0,0,1.18-3.74,7,7,0,0,0-1-3.9A6.56,6.56,0,0,0,86.55,13.36Z"/><path class="cls-1" d="M66.62,14.79l-.06-.09q-.2-.29-.42-.56l-.06-.07a6.94,6.94,0,0,0-.49-.52h0A6.77,6.77,0,0,0,65,13h0l-.42-.3-.14-.08h0a6.23,6.23,0,0,0-.74-.39h0l-.38-.15h0L62.93,12h-.06l-.34-.08-.11,0-.29-.05-.2,0-.22,0H48.59v3.09H61a2.83,2.83,0,0,1,1,.2,3.09,3.09,0,0,1,.38.18h0a3.23,3.23,0,0,1,.36.24A4.22,4.22,0,0,1,64,17.1a5,5,0,0,1,.46,2.12,4.41,4.41,0,0,1-1.07,2.92,3.08,3.08,0,0,1-2.51,1.17l-9.29,0h-2.2a6.09,6.09,0,0,0,2.86,2.54h0c.18.08.36.14.54.2l.07,0,.54.14h0l.55.09h.12l.55,0h6.63a6.07,6.07,0,0,0,3.29-1A7,7,0,0,0,67,22.8a7.63,7.63,0,0,0,.9-3.67,7.83,7.83,0,0,0-.9-3.71C66.88,15.21,66.75,15,66.62,14.79Z"/><path class="cls-1" d="M51.64,15.75c0-.06,0-.12,0-.18v0H48.59v4.71c0,.18,0,.37,0,.59l0,.23,0,.21a6.18,6.18,0,0,0,.43,1.41h2.52Z"/></g></g></svg>