<svg xmlns="http://www.w3.org/2000/svg" viewBox="0 0 65.99 26.17"><defs><style>.cls-1{fill:#fff;}</style></defs><title>type_Lab_white</title><g id="Layer_2" data-name="Layer 2"><g id="front"><path class="cls-1" d="M14.42,23.07H13.23L.94,23.13c.08.13.16.26.24.38l.07.1.2.27.08.1.23.26.06.07a6,6,0,0,0,3,1.68l.09,0,.2,0,.17,0,.17,0,.22,0h8.78a1.53,1.53,0,0,0,1.09-.45h0a1.54,1.54,0,0,0-1.09-2.62Z"/><path class="cls-1" d="M3,15.54c0-.06,0-.12,0-.18V11.6c0-.06,0-.12,0-.18v-.07L3,1.56A1.43,1.43,0,0,0,2.53.48,1.48,1.48,0,0,0,1.38.12h0A1.49,1.49,0,0,0,0,1.55C0,1.93,0,2.46,0,3,0,4.25,0,6,0,6.16l0,7.32L0,20c0,.18,0,.36,0,.58l0,.23,0,.21a6.12,6.12,0,0,0,.46,1.48H3Z"/><path class="cls-1" d="M50.42,3l7.14,0a3.08,3.08,0,0,1,2.5,1.16,4.4,4.4,0,0,1,1.07,2.91c0,.15,0,.29,0,.44s0,.25,0,.38a4.91,4.91,0,0,1-.39,1.3,4.22,4.22,0,0,1-1.26,1.6l-.08.06h.08A6.62,6.62,0,0,1,63,12a7.62,7.62,0,0,0,.66-1,7.75,7.75,0,0,0,.89-3.31c0-.13,0-.26,0-.39a7.6,7.6,0,0,0-.9-3.66A7,7,0,0,0,61.22,1a6.05,6.05,0,0,0-3.28-1H52.78l-.55,0h-.12l-.55.09h0L51,.27l-.07,0c-.18.06-.36.13-.54.2h0a6.09,6.09,0,0,0-.69.35L49.45,1h0l0,0h0l-.36.26-.1.08-.25.21-.11.1-.23.23L48.3,2,48,2.36h0l-.24.33L47.56,3h2.86Z"/><path class="cls-1" d="M49.77,10.92l0-7.22H47.22a6.17,6.17,0,0,0-.41,1.38l0,.21,0,.23c0,.23,0,.41,0,.59v4.83Z"/><path class="cls-1" d="M64.71,14.62l-.06-.09q-.2-.29-.42-.56l-.06-.07a6.92,6.92,0,0,0-.49-.52h0a6.75,6.75,0,0,0-.58-.49h0l-.42-.29-.14-.08h0a6.21,6.21,0,0,0-.74-.39h0L61.42,12h0L61,11.84H61l-.34-.08-.11,0-.29-.05-.2,0-.22,0H46.73v3.08H59.07a2.82,2.82,0,0,1,1,.2,3.08,3.08,0,0,1,.38.18h0a3.23,3.23,0,0,1,.36.24,4.21,4.21,0,0,1,1.26,1.6A5,5,0,0,1,62.58,19a4.4,4.4,0,0,1-1.07,2.91A3.08,3.08,0,0,1,59,23.11l-9.26,0H47.56a6.08,6.08,0,0,0,2.85,2.53h0c.18.08.35.14.54.2l.07,0,.54.14h0l.55.09h.12l.55,0h6.62a6.05,6.05,0,0,0,3.28-1,7,7,0,0,0,2.41-2.62,7.61,7.61,0,0,0,.9-3.66,7.81,7.81,0,0,0-.9-3.7C65,15,64.85,14.82,64.71,14.62Z"/><path class="cls-1" d="M49.78,15.54c0-.06,0-.12,0-.18v0h-3V20c0,.18,0,.36,0,.59l0,.23,0,.21a6.16,6.16,0,0,0,.43,1.41h2.52Z"/><path class="cls-1" d="M31,4.79h0L32.5,1.08A1.68,1.68,0,0,0,31.08.32h0a1.67,1.67,0,0,0-1.56,1L20,24.43a3.89,3.89,0,0,0-.07.52,1.21,1.21,0,0,0,.32.9,1.51,1.51,0,0,0,1.76.08,1.33,1.33,0,0,0,.5-.7v0h0l.15-.36,2.16-5.25,1.44-3.45Z"/><path class="cls-1" d="M40.46,20.14H37.37l2.12,5a1.94,1.94,0,0,0,.59.75,1.25,1.25,0,0,0,.77.26,1.38,1.38,0,0,0,1.37-1.41,2,2,0,0,0-.1-.62Z"/><polygon class="cls-1" points="40.19 19.48 39.02 16.65 39.01 16.65 35.91 16.65 35.19 16.65 26.78 16.65 25.61 19.48 36.38 19.48 37.09 19.48 40.18 19.48 40.19 19.48"/><polygon class="cls-1" points="35.63 15.99 38.73 15.99 32.87 1.91 31.32 5.66 35.63 15.99"/></g></g></svg>