<svg xmlns="http://www.w3.org/2000/svg" viewBox="0 0 92.01 26.22"><defs><style>.cls-1{fill:#fff;}</style></defs><title>type_Data_white</title><g id="Layer_2" data-name="Layer 2"><g id="front"><path class="cls-1" d="M36.23,4.79h0l1.54-3.71A1.68,1.68,0,0,0,36.36.32h0a1.67,1.67,0,0,0-1.56,1L25.26,24.43a3.89,3.89,0,0,0-.07.52,1.21,1.21,0,0,0,.32.9,1.51,1.51,0,0,0,1.76.08,1.33,1.33,0,0,0,.5-.7v0h0l.15-.36,2.16-5.25,1.44-3.45Z"/><path class="cls-1" d="M57,24.71a1.41,1.41,0,0,0,.46,1.07,1.77,1.77,0,0,0,2.34,0,1.42,1.42,0,0,0,.46-1.07V3.49H57Z"/><path class="cls-1" d="M45.74,20.14H42.65l2.12,5a1.94,1.94,0,0,0,.59.75,1.25,1.25,0,0,0,.77.26,1.38,1.38,0,0,0,1.37-1.41,2,2,0,0,0-.1-.62Z"/><polygon class="cls-1" points="45.48 19.48 44.3 16.65 44.29 16.65 41.19 16.65 40.47 16.65 32.06 16.65 30.89 19.48 41.66 19.48 42.37 19.48 45.47 19.48 45.48 19.48"/><polygon class="cls-1" points="40.91 15.99 44.01 15.99 38.15 1.91 36.6 5.66 40.91 15.99"/><path class="cls-1" d="M3,11.45v-.08L3,3.79V.92A6,6,0,0,0,.5,3.78h0L.42,4c-.06.15-.11.3-.16.46l0,.12a5.91,5.91,0,0,0-.13.58l0,.21,0,.23C0,5.81,0,6,0,6.18l0,7.34L0,20c0,.17,0,.36,0,.59l0,.23,0,.21c0,.19.08.38.13.56l0,.15c0,.14.09.29.15.43a6.1,6.1,0,0,0,.44.93h0a6.07,6.07,0,0,0,.39.58l.1.13.29.34.23.24.16.15.4.33.11.08A5.8,5.8,0,0,0,3,25.3V22.47l0-6.89c0-.06,0-.12,0-.18V11.63C3,11.57,3,11.51,3,11.45Z"/><path class="cls-1" d="M17.19,1.84a10.14,10.14,0,0,0-6-1.73H6A6,6,0,0,0,3.67.6V3.13l4.84,0H10.9a6.87,6.87,0,0,1,6,2.87,12.1,12.1,0,0,1,2,7.11,12.16,12.16,0,0,1-2,7.13,6.88,6.88,0,0,1-6,2.85H3.68v2.53A6,6,0,0,0,6,26.15h5.2a10.23,10.23,0,0,0,6-1.71,10.67,10.67,0,0,0,3.74-4.66,16.81,16.81,0,0,0,1.27-6.64,16.71,16.71,0,0,0-1.27-6.6A10.8,10.8,0,0,0,17.19,1.84Z"/><polygon class="cls-1" points="89.98 19.48 88.81 16.65 88.8 16.65 85.7 16.65 84.98 16.65 76.57 16.65 75.4 19.48 86.17 19.48 86.88 19.48 89.97 19.48 89.98 19.48"/><path class="cls-1" d="M90.25,20.14H87.16l2.12,5a1.94,1.94,0,0,0,.59.75,1.25,1.25,0,0,0,.77.26A1.38,1.38,0,0,0,92,24.76a2,2,0,0,0-.1-.62Z"/><path class="cls-1" d="M67.43,0H49.88a1.54,1.54,0,0,0-1.1.39,1.3,1.3,0,0,0-.41,1,1.34,1.34,0,0,0,.41,1,1.54,1.54,0,0,0,1.1.39H67.43a1.59,1.59,0,0,0,1.11-.38,1.28,1.28,0,0,0,.41-1,1.34,1.34,0,0,0-.41-1A1.54,1.54,0,0,0,67.43,0Z"/><path class="cls-1" d="M80.74,4.79h0l1.54-3.71A1.68,1.68,0,0,0,80.86.32h0a1.67,1.67,0,0,0-1.56,1L69.77,24.43a3.88,3.88,0,0,0-.06.52,1.21,1.21,0,0,0,.32.9,1.51,1.51,0,0,0,1.76.08,1.33,1.33,0,0,0,.5-.7v0h0l.15-.35,2.17-5.25L76,16.14Z"/><polygon class="cls-1" points="85.42 15.99 88.52 15.99 82.66 1.91 81.11 5.66 85.42 15.99"/></g></g></svg>